<?xml version="1.0" encoding="UTF-8" standalone="no"?><!DOCTYPE svg PUBLIC "-//W3C//DTD SVG 1.1//EN" "http://www.w3.org/Graphics/SVG/1.1/DTD/svg11.dtd"><svg width="100%" height="100%" viewBox="0 0 360 181" version="1.1" xmlns="http://www.w3.org/2000/svg" xmlns:xlink="http://www.w3.org/1999/xlink" xml:space="preserve" style="fill-rule:evenodd;clip-rule:evenodd;stroke-linejoin:round;stroke-miterlimit:1.41421;"><rect id="T.-.-Lund.-.-DescriptionLaw" x="0" y="0" width="360" height="181" style="fill:none;"/><g><path d="M170.494,92.585c0.044,0.466 9.578,2.28 9.506,3.7c-0.073,1.42 -8.147,2.735 -7.617,2.961c4.445,1.896 5.927,18.874 -2.36,25.208c-0.398,0.304 3.571,0.404 3.84,2.021c0.202,3.167 -9.635,0.27 -7.748,17.316c0.062,0.561 9.836,2.223 9.7,4.718c-0.034,0.618 -75.056,18.662 -75.056,18.662c0,0 -50.675,-15.718 -51.594,-16.366c-10.106,-7.135 -6.216,-24.838 -2.944,-26.834c0.38,-0.231 -3.352,-0.703 -3.431,-1.656c-0.079,-0.953 6.669,-3.732 9.765,-4.128c1.746,-15.957 -7.542,-15.243 -7.542,-17.228c0,-1.984 7.78,-3.048 7.127,-3.24c-5.46,-1.603 -8.556,-23.593 1.435,-27.26c1.031,-0.154 76.902,-11.478 76.902,-11.478c0,0 47.496,13.998 47.429,16.019c-0.145,4.323 -9.028,0.135 -7.412,17.585Z" style="fill-rule:nonzero;"/><path d="M104.553,108.402c0,0 -49.196,-13.399 -50.222,-13.858c-3.435,-1.54 -5.606,-19.325 1.422,-18.597c1.666,0.173 48.941,16.041 48.941,16.041l-0.141,16.414Z" style="fill:#fff;fill-rule:nonzero;"/><path d="M167.803,93.478c0.189,0.752 -60.289,14.924 -60.289,14.924l0,-16.238c0,0 62.297,-13.064 61.711,-12.663c-2.25,1.54 -1.751,12.663 -1.422,13.977Z" style="fill:#fff;fill-rule:nonzero;"/><path d="M100.472,159.791c0,0 -49.197,-13.398 -50.222,-13.858c-3.435,-1.54 -5.606,-19.325 1.421,-18.597c1.667,0.173 48.942,16.041 48.942,16.041l-0.141,16.414Z" style="fill:#fff;fill-rule:nonzero;"/><path d="M163.628,144.866c0.188,0.753 -60.29,14.925 -60.29,14.925l0,-16.238c0,0 62.297,-13.064 61.711,-12.663c-2.251,1.54 -1.751,12.663 -1.421,13.976Z" style="fill:#fff;fill-rule:nonzero;"/><path d="M55.119,119.305c-0.189,0.752 60.29,14.925 60.29,14.925l0,-16.239c0,0 -62.298,-13.064 -61.712,-12.663c2.251,1.54 1.751,12.663 1.422,13.977Z" style="fill:#fff;fill-rule:nonzero;"/><path d="M118.435,134.23c0,0 49.197,-13.399 50.222,-13.859c3.435,-1.539 5.606,-19.325 -1.421,-18.596c-1.667,0.173 -48.942,16.04 -48.942,16.04l0.141,16.415Z" style="fill:#fff;fill-rule:nonzero;"/></g><g><path d="M246.747,18.466l-40.027,40.039l28.906,28.897l40.027,-40.038l-28.906,-28.898Z"/><path d="M281.14,49.206c2.438,-2.221 1.326,-6.33 0.163,-7.476l-28.964,-29.339c-1.163,-1.146 -5.441,-1.638 -7.513,0.908c-2.072,2.546 -1.297,6.083 -0.133,7.229l28.903,28.899c1.164,1.145 5.432,1.567 7.544,-0.221Z" style="fill-rule:nonzero;"/><path d="M238.122,92.382c-2.334,2.317 -6.438,2.202 -7.561,1.074l-29.786,-29.871c-1.123,-1.128 -1.2,-5.1 0.943,-7.371c2.143,-2.271 6.172,-1.129 7.295,-0.001l28.903,28.9c1.123,1.128 1.593,5.891 0.206,7.269Z" style="fill-rule:nonzero;"/><path d="M329.227,140.543c-3.859,3.435 -9.357,1.276 -9.99,0.639c-0.633,-0.638 -72.49,-73.049 -72.49,-73.049l10.63,-9.628c0,0 70.736,71.16 72.029,72.585c1.293,1.424 3.68,6.018 -0.179,9.453Z" style="fill-rule:nonzero;"/></g></svg>