<?xml version="1.0" encoding="UTF-8" standalone="no"?><!DOCTYPE svg PUBLIC "-//W3C//DTD SVG 1.1//EN" "http://www.w3.org/Graphics/SVG/1.1/DTD/svg11.dtd"><svg width="100%" height="100%" viewBox="0 0 82 82" version="1.1" xmlns="http://www.w3.org/2000/svg" xmlns:xlink="http://www.w3.org/1999/xlink" xml:space="preserve" style="fill-rule:evenodd;clip-rule:evenodd;stroke-linejoin:round;stroke-miterlimit:1.41421;"><g id="T.-.-Lund.-.-HP.-.-Recycling"><path d="M81.6,40.8c0,22.533 -18.266,40.8 -40.8,40.8c-22.533,0 -40.8,-18.267 -40.8,-40.8c0,-22.533 18.267,-40.8 40.8,-40.8c22.534,0 40.8,18.267 40.8,40.8" style="fill:#fed500;fill-rule:nonzero;"/><g><path d="M51.602,28.237l7.156,0l-5.885,8.965l-7.156,0l5.885,-8.965Z" style="fill:#269c6a;fill-rule:nonzero;"/><path d="M61.65,32.631l-2.885,-4.394l-7.156,0l5.148,7.842l-1.384,0.905l6.273,1.392l0.245,-1.174l0.663,-3.193l0.474,-2.28l-1.378,0.902Z" style="fill:#52b088;fill-rule:nonzero;"/><path d="M61.65,32.631l-2.885,-4.394l-7.156,0l5.148,7.842l-1.384,0.905l6.273,1.392l0.245,-1.174l0.663,-3.193l0.474,-2.28l-1.378,0.902Z" style="fill:#52b088;fill-rule:nonzero;"/><path d="M44.359,51.733l-3.011,-6.723l10.99,0l3.01,6.723l-10.989,0Z" style="fill:#269c6a;fill-rule:nonzero;"/><path d="M44.362,40.546l-3.014,4.441l3.008,6.74l5.377,-7.927l1.412,0.856l-1.335,-6.538l-1.211,0.278l-3.292,0.757l-2.352,0.54l1.407,0.853Z" style="fill:#52b088;fill-rule:nonzero;"/><path d="M69.973,45.437l-3.87,6.268l-6.174,-9.091l3.87,-6.268l6.174,9.091Z" style="fill:#269c6a;fill-rule:nonzero;"/><path d="M60.717,51.721l5.368,-0.003l3.885,-6.275l-9.579,0.005l-0.085,-1.648l-4.659,4.778l0.911,0.845l2.476,2.299l1.768,1.641l-0.085,-1.642Z" style="fill:#52b088;fill-rule:nonzero;"/></g><g><path d="M22.259,28.587c-1.012,0 -1.835,0.824 -1.835,1.835c0,1.013 0.823,1.836 1.835,1.836c1.013,0 1.836,-0.823 1.836,-1.836c0,-1.011 -0.823,-1.835 -1.836,-1.835m0,5.57c-2.059,0 -3.734,-1.675 -3.734,-3.735c0,-2.058 1.675,-3.734 3.734,-3.734c2.059,0 3.735,1.676 3.735,3.734c0,2.06 -1.676,3.735 -3.735,3.735" style="fill:#858585;fill-rule:nonzero;"/><path d="M31.503,33.365l-18.488,0.002c-0.208,0 -0.372,0.175 -0.358,0.382l1.407,20.828c0.013,0.189 0.17,0.335 0.358,0.335l15.635,-0.014c0.188,0 0.344,-0.146 0.357,-0.333l1.447,-20.817c0.014,-0.207 -0.15,-0.383 -0.358,-0.383" style="fill:#a3a3a3;fill-rule:nonzero;"/><path d="M16.283,53.704c-0.574,0.04 -1.075,-0.396 -1.115,-0.969l-1.192,-17.047c-0.04,-0.573 0.396,-1.075 0.969,-1.115c0.573,-0.04 1.075,0.396 1.114,0.969l1.193,17.047c0.04,0.573 -0.396,1.075 -0.969,1.115" style="fill:#858585;fill-rule:nonzero;"/><path d="M19.303,53.721c-0.574,0.02 -1.061,-0.433 -1.08,-1.007l-0.597,-17.078c-0.02,-0.574 0.434,-1.06 1.008,-1.08c0.573,-0.02 1.06,0.433 1.08,1.007l0.596,17.078c0.02,0.574 -0.433,1.06 -1.007,1.08" style="fill:#858585;fill-rule:nonzero;"/><path d="M22.259,53.727c-0.574,0 -1.044,-0.47 -1.044,-1.044l0,-17.089c0,-0.574 0.47,-1.044 1.044,-1.044c0.574,0 1.045,0.47 1.045,1.044l0,17.089c0,0.574 -0.471,1.044 -1.045,1.044" style="fill:#858585;fill-rule:nonzero;"/><path d="M25.279,53.721c-0.574,-0.02 -1.027,-0.506 -1.007,-1.08l0.596,-17.078c0.02,-0.574 0.507,-1.027 1.08,-1.007c0.574,0.02 1.028,0.506 1.008,1.08l-0.597,17.078c-0.02,0.574 -0.506,1.027 -1.08,1.007" style="fill:#858585;fill-rule:nonzero;"/><path d="M28.236,53.704c-0.573,-0.04 -1.009,-0.542 -0.969,-1.115l1.192,-17.047c0.04,-0.573 0.542,-1.009 1.115,-0.969c0.573,0.04 1.009,0.542 0.969,1.115l-1.192,17.047c-0.04,0.573 -0.542,1.009 -1.115,0.969" style="fill:#858585;fill-rule:nonzero;"/><path d="M32.521,33.714l-20.523,0c-0.205,0 -0.371,-0.167 -0.371,-0.372l0,-2.611c0,-0.205 0.166,-0.371 0.371,-0.371l20.523,0c0.205,0 0.371,0.166 0.371,0.371l0,2.611c0,0.205 -0.166,0.372 -0.371,0.372" style="fill:#858585;fill-rule:nonzero;"/></g></g></svg>