<?xml version="1.0" encoding="UTF-8" standalone="no"?><!DOCTYPE svg PUBLIC "-//W3C//DTD SVG 1.1//EN" "http://www.w3.org/Graphics/SVG/1.1/DTD/svg11.dtd"><svg width="100%" height="100%" viewBox="0 0 620 200" version="1.1" xmlns="http://www.w3.org/2000/svg" xmlns:xlink="http://www.w3.org/1999/xlink" xml:space="preserve" style="fill-rule:evenodd;clip-rule:evenodd;stroke-linejoin:round;stroke-miterlimit:1.41421;"><g><path d="M360,30l0,-30l40,0c55.192,0 100,44.808 100,100c0,55.192 -44.808,100 -100,100l-40,0l0,-30l-40,0c-11.038,0 -20,-8.962 -20,-20c0,-11.038 8.962,-20 20,-20l40,0l0,-60l-40,0c-11.038,0 -20,-8.962 -20,-20c0,-11.038 8.962,-20 20,-20l40,0Z" style="fill:#5392ff;"/><path d="M260,30l0,-30l-40,0c-55.192,0 -100,44.808 -100,100c0,55.192 44.808,100 100,100l40,0l0,-30l-40,0c-11.038,0 -20,-8.962 -20,-20c0,-11.038 8.962,-20 20,-20l40,0l0,-60l-40,0c-11.038,0 -20,-8.962 -20,-20c0,-11.038 8.962,-20 20,-20l40,0Z" style="fill:#cb71d7;"/><path d="M150.016,110c5.511,0 9.984,-4.473 9.984,-9.984l0,-0.032c0,-5.511 -4.473,-9.984 -9.984,-9.984l-140.032,0c-5.511,0 -9.984,4.473 -9.984,9.984l0,0.032c0,5.511 4.473,9.984 9.984,9.984l140.032,0Z" style="fill:#cb71d7;"/><path d="M610.016,110c5.511,0 9.984,-4.473 9.984,-9.984l0,-0.032c0,-5.511 -4.473,-9.984 -9.984,-9.984l-140.032,0c-5.511,0 -9.984,4.473 -9.984,9.984l0,0.032c0,5.511 4.473,9.984 9.984,9.984l140.032,0Z" style="fill:#5392ff;"/></g></svg>