<?xml version="1.0" encoding="UTF-8" standalone="no"?><!DOCTYPE svg PUBLIC "-//W3C//DTD SVG 1.1//EN" "http://www.w3.org/Graphics/SVG/1.1/DTD/svg11.dtd"><svg width="100%" height="100%" viewBox="0 0 200 200" version="1.1" xmlns="http://www.w3.org/2000/svg" xmlns:xlink="http://www.w3.org/1999/xlink" xml:space="preserve" style="fill-rule:evenodd;clip-rule:evenodd;stroke-linejoin:round;stroke-miterlimit:10;"><rect id="T.-.-Lund.-.-Safety.-food" x="0" y="0" width="200" height="200" style="fill:none;"/><path d="M114.339,47.075c0.365,-5.175 3.621,-8.294 4.436,-8.507c0.402,0 -1.895,4.874 -1.629,8.507c-0.184,2.381 2.031,4.537 1.629,6.806c-0.406,2.269 -3.668,6.805 -4.076,6.805c-0.406,0 1.689,-4.537 1.631,-6.805c-0.058,-2.268 -2.446,-4.325 -1.991,-6.806" style="fill:#808080;fill-opacity:0.5;"/><path d="M121.98,48.524c0.366,-5.187 3.45,-7.384 4.254,-7.597c0.401,0 -2.895,3.952 -2.635,7.597c-0.178,2.381 0.401,4.118 0.809,5.961c0.402,1.849 1.885,4.968 1.619,5.11c-0.271,0.142 -2.564,-2.41 -3.237,-4.259c-0.674,-1.844 -1.259,-4.33 -0.81,-6.812" style="fill:#808080;fill-opacity:0.5;"/><path d="M121.108,40.651c0.621,-1.424 0.916,-6.292 0.816,-5.134c0.1,0.307 1.051,3.981 0.814,5.99c-0.236,2.008 -1.73,4.484 -2.238,6.067c-0.508,1.583 -0.543,3.42 -0.814,3.42c-0.273,0 -1.059,-1.695 -0.816,-3.42c0.236,-1.725 1.785,-4.431 2.238,-6.923" style="fill:#808080;fill-opacity:0.5;"/><path d="M50.697,129.383c0,-3.545 12.252,-6.428 27.363,-6.428c15.116,0 27.362,2.883 27.362,6.428c0,3.55 -12.246,6.427 -27.362,6.427c-15.111,0 -27.363,-2.877 -27.363,-6.427Z" style="fill:#c0bfbf;"/><path d="M60.763,97.606l55.706,31.883l-1.022,1.79l-55.199,-32.781l0.515,-0.892Z" style="fill:#010101;"/><path d="M60.657,97.541c0.029,-0.059 0.106,-0.083 0.171,-0.047l55.706,31.889c0.06,0.029 0.077,0.105 0.041,0.171l-1.021,1.784c-0.018,0.029 -0.041,0.053 -0.076,0.059c-0.03,0.012 -0.065,0.006 -0.095,-0.012l-55.193,-32.781c-0.059,-0.035 -0.083,-0.112 -0.047,-0.171l0.514,-0.892Zm-0.296,1.022l-0.047,-0.171l55.198,32.775l-0.178,0.047l1.022,-1.783l0.047,0.171l-55.705,-31.89l0.178,-0.047l-0.515,0.898Z" style="fill:#010101;fill-rule:nonzero;stroke:#010101;stroke-width:0.06px;"/><path d="M61.868,95.556l57.75,28.014l-0.899,1.848l-57.301,-28.934l0.45,-0.928Z" style="fill:#010101;"/><path d="M61.755,95.503c0.029,-0.059 0.101,-0.088 0.165,-0.059l57.75,28.014c0.065,0.029 0.089,0.106 0.06,0.166l-0.897,1.854c-0.012,0.03 -0.042,0.054 -0.071,0.066c-0.036,0.006 -0.071,0.006 -0.101,-0.013l-57.301,-28.935c-0.06,-0.03 -0.089,-0.106 -0.054,-0.166l0.449,-0.927Zm-0.224,1.04l-0.059,-0.171l57.301,28.936l-0.165,0.059l0.897,-1.85l0.06,0.166l-57.757,-28.009l0.172,-0.059l-0.449,0.928Z" style="fill:#010101;fill-rule:nonzero;stroke:#010101;stroke-width:0.06px;"/><path d="M63.953,96.566c0.532,-1.164 2.729,-0.892 3.255,0c0.106,0.815 0.267,0.898 0,1.075c-1.193,-0.419 -1.087,0 -1.63,0c0.277,1.388 0.591,4.708 0.543,6.51c-0.047,1.802 -0.809,2.865 -0.809,4.3c0,1.436 0.945,2.931 0.809,4.301c-0.012,1.696 -0.969,3.096 -0.809,4.301c0.39,2.493 0.856,2.174 0.809,4.301c-0.047,2.127 -1.075,6.51 -1.081,8.454l-1.63,-1.075c0.012,-2.015 1.223,-4.762 1.087,-7.379c0.106,-1.654 -0.49,-1.606 -0.815,-4.301c-0.153,-1.293 0.886,-2.504 0.815,-4.301c0.106,-1.098 -0.68,-1.612 -0.815,-4.301c-0.165,-1.453 0.768,-2.32 0.815,-4.3c0.046,-1.978 -1.07,-6.421 -0.544,-7.585Z" style="fill:#fff;"/><path d="M63.823,96.525c0,-0.012 0.006,-0.018 0.012,-0.03l0.118,-0.201c0.006,-0.006 0.012,-0.012 0.018,-0.024l0.154,-0.171c0.006,-0.006 0.018,-0.018 0.029,-0.023l0.39,-0.242c0.012,-0.006 0.023,-0.012 0.035,-0.018l0.461,-0.13c0.012,0 0.018,0 0.03,0l0.508,-0.029c0.012,-0.006 0.018,-0.006 0.029,0l0.502,0.077c0.006,0 0.018,0 0.023,0.006l0.467,0.16c0.012,0 0.023,0.006 0.03,0.012l0.384,0.236c0.006,0.006 0.018,0.012 0.023,0.018l0.153,0.142c0.006,0.006 0.012,0.012 0.018,0.018l0.118,0.16c0.012,0.018 0.024,0.042 0.024,0.065l0.041,0.271l0.041,0.207l0.036,0.159l0.023,0.136c0,0.012 0.006,0.023 0,0.035l-0.012,0.166c0,0.03 -0.006,0.053 -0.024,0.077l-0.047,0.064c-0.006,0.006 -0.018,0.018 -0.029,0.024l-0.083,0.065c-0.035,0.029 -0.083,0.042 -0.124,0.023l-0.39,-0.118l-0.277,-0.053l0.023,0l-0.219,-0.005l0.023,0l-0.159,0.023l0.029,-0.006l-0.254,0.1l-0.153,0.047c-0.006,0 -0.018,0 -0.024,0l-0.177,0.018l0.124,-0.165l0.053,0.283l0.054,0.325l0.101,0.744l0.101,0.856l0.088,0.904l0.071,0.927l0.053,0.903l0.023,0.851l0.007,0.385l-0.007,0.36l-0.047,0.649l-0.099,0.604l-0.13,0.549l-0.142,0.52l-0.153,0.496l-0.118,0.49l-0.083,0.484l-0.035,0.515l0,-0.018l0.041,0.543l0.106,0.526l0.142,0.531l0.16,0.537l0.159,0.55l0.13,0.544l0.077,0.537c0,0.006 0,0.012 0,0.023l-0.007,0.52l-0.047,0.627l-0.106,0.614l-0.147,0.579l-0.171,0.549l-0.16,0.525l-0.118,0.497l-0.07,0.467l0,-0.024l0.012,0.461l0,-0.023l0.076,0.438l0.071,0.378l0.077,0.319l0.07,0.283l0.136,0.467l0.13,0.384l0.112,0.384l0.083,0.432l0.029,0.254l0.019,0.289l0.012,0.325l-0.007,0.378l-0.018,0.426l-0.041,0.479l-0.06,0.514l-0.07,0.543l-0.171,1.152l-0.195,1.199l-0.195,1.193l-0.165,1.123l-0.065,0.52l-0.053,0.484l-0.035,0.438l-0.012,0.384c0,0.054 -0.03,0.101 -0.071,0.124c-0.047,0.023 -0.101,0.018 -0.147,-0.012l-1.631,-1.075c-0.041,-0.023 -0.064,-0.077 -0.059,-0.124l0.053,-0.785l0.142,-0.863l0.189,-0.904l0.213,-0.933l0.206,-0.963l0.172,-0.976l0.106,-0.975l0,-0.975l0.012,-0.295l-0.006,-0.248l-0.036,-0.432l-0.088,-0.366l-0.118,-0.372l-0.136,-0.432l-0.077,-0.248l-0.083,-0.289l-0.07,-0.324l-0.077,-0.373l-0.065,-0.426l-0.064,-0.473l-0.012,-0.502c0,-0.012 0.006,-0.018 0.006,-0.023l0.076,-0.479l0.137,-0.508l0.177,-0.514l0.172,-0.531l0.142,-0.557l0.094,-0.578l0.019,-0.633l0,-0.389l0.006,0.029l-0.065,-0.367l-0.112,-0.365l-0.136,-0.414l-0.153,-0.502l-0.147,-0.603l-0.065,-0.36l-0.059,-0.396l-0.042,-0.437l-0.035,-0.484l-0.018,-0.526c0,-0.006 0.006,-0.012 0.006,-0.023l0.064,-0.484l0.118,-0.484l0.166,-0.49l0.159,-0.496l0.147,-0.543l0.118,-0.598l0.054,-0.673l-0.012,-0.384l-0.024,-0.443l-0.041,-0.484l-0.064,-0.521l-0.153,-1.104l-0.159,-1.135l-0.142,-1.093l-0.048,-0.52l-0.035,-0.484l-0.018,-0.443l0.018,-0.396l0.047,-0.337c0,-0.006 0,-0.018 0.007,-0.023l0.082,-0.254Zm0.183,0.342l0.006,-0.029l-0.042,0.319l-0.018,0.372l0.012,0.432l0.036,0.472l0.047,0.508l0.142,1.093l0.16,1.134l0.147,1.11l0.064,0.525l0.048,0.496l0.023,0.456l0.006,0.407l-0.053,0.709l-0.118,0.62l-0.16,0.555l-0.159,0.497l-0.153,0.467l-0.118,0.46l-0.065,0.484l0,-0.023l0.012,0.515l0.036,0.472l0.041,0.426l0.059,0.385l0.065,0.348l0.142,0.591l0.147,0.491l0.143,0.425l0.117,0.39l0.065,0.366l0,0.419l-0.023,0.668l-0.095,0.615l-0.153,0.566l-0.172,0.531l-0.165,0.502l-0.136,0.473l-0.077,0.479l0,-0.023l0.006,0.467l0.065,0.473l0.064,0.414l0.077,0.36l0.071,0.313l0.07,0.277l0.077,0.248l0.136,0.431l0.13,0.396l0.089,0.402l0.041,0.455l0.006,0.266l-0.012,0.289l-0.006,0.998l-0.106,0.999l-0.171,0.981l-0.207,0.969l-0.213,0.927l-0.188,0.886l-0.143,0.84l-0.053,0.785l-0.06,-0.13l1.631,1.075l-0.225,0.118l0.018,-0.396l0.036,-0.449l0.053,-0.484l0.065,-0.531l0.165,-1.123l0.194,-1.193l0.195,-1.199l0.172,-1.152l0.07,-0.531l0.06,-0.514l0.035,-0.461l0.018,-0.42l0.006,-0.366l-0.006,-0.313l-0.018,-0.277l-0.029,-0.23l-0.077,-0.407l-0.106,-0.372l-0.136,-0.396l-0.142,-0.479l-0.071,-0.283l-0.076,-0.33l-0.071,-0.379l-0.077,-0.438c0,-0.012 0,-0.018 -0.006,-0.023l-0.012,-0.461c0,-0.006 0.006,-0.018 0.006,-0.023l0.071,-0.49l0.124,-0.514l0.165,-0.525l0.16,-0.537l0.147,-0.563l0.106,-0.578l0.041,-0.615l0.006,-0.52l0.006,0.023l-0.076,-0.514l-0.124,-0.531l-0.154,-0.544l-0.171,-0.544l-0.142,-0.555l-0.106,-0.561l-0.042,-0.544c-0.006,-0.006 -0.006,-0.013 0,-0.018l0.036,-0.538l0.082,-0.508l0.124,-0.502l0.148,-0.496l0.142,-0.508l0.13,-0.539l0.101,-0.566l0.041,-0.638l0.006,-0.349l-0.006,-0.385l-0.018,-0.839l-0.053,-0.903l-0.071,-0.916l-0.089,-0.904l-0.101,-0.845l-0.1,-0.744l-0.054,-0.313l-0.053,-0.283c-0.006,-0.042 0,-0.083 0.023,-0.112c0.023,-0.03 0.059,-0.053 0.101,-0.053l0.177,-0.018l-0.02,0l0.13,-0.035l0.254,-0.101c0.006,-0.006 0.018,-0.006 0.029,-0.006l0.16,-0.023c0.006,0 0.018,-0.006 0.023,-0.006l0.219,0.006c0.012,0.006 0.018,0.006 0.023,0.006l0.301,0.059l0.391,0.118l-0.124,0.029l0.082,-0.065l-0.029,0.024l0.048,-0.065l-0.024,0.077l0.012,-0.166l0,0.036l-0.023,-0.13l-0.035,-0.166l-0.041,-0.219l-0.042,-0.272l0.023,0.065l-0.118,-0.16l0.019,0.018l-0.154,-0.142l0.024,0.018l-0.385,-0.236l0.03,0.012l-0.467,-0.159l0.023,0.006l-0.502,-0.077l0.029,0l-0.508,0.029l0.029,0l-0.461,0.13l0.035,-0.018l-0.39,0.242l0.029,-0.029l-0.153,0.171l0.018,-0.018l-0.118,0.201l0.012,-0.029l-0.082,0.252Z" style="fill:#010101;fill-rule:nonzero;stroke:#010101;stroke-width:0.06px;"/><path d="M65.831,97.511c0.531,-1.164 2.741,-0.892 3.261,0c0.112,0.815 0.271,0.898 0,1.075c-1.193,-0.414 -1.087,0 -1.63,0c0.277,1.388 0.59,4.713 0.543,6.515c-0.041,1.803 -0.815,2.871 -0.815,4.301c0,1.436 0.951,2.931 0.815,4.307c-0.012,1.695 -0.969,3.096 -0.815,4.301c0.396,2.494 0.815,2.512 0.815,4.307c0,1.791 -0.804,4.508 -0.815,6.451l-1.63,0c0.012,-2.014 0.951,-3.834 0.814,-6.451c0.112,-1.654 -0.484,-1.606 -0.814,-4.307c-0.154,-1.287 0.886,-2.504 0.814,-4.301c0.112,-1.104 -0.679,-1.612 -0.814,-4.307c-0.166,-1.453 0.773,-2.32 0.814,-4.301c0.048,-1.983 -1.075,-6.426 -0.543,-7.59Z" style="fill:#fff;"/><path d="M65.702,97.47c0,-0.012 0.006,-0.018 0.012,-0.029l0.118,-0.201c0.006,-0.006 0.012,-0.012 0.018,-0.023l0.153,-0.171c0.006,-0.006 0.019,-0.018 0.03,-0.023l0.39,-0.242c0.012,-0.006 0.023,-0.012 0.035,-0.018l0.467,-0.13c0.012,0 0.018,0 0.029,0l0.509,-0.029c0.012,-0.006 0.018,-0.006 0.029,0l0.502,0.077c0.006,0 0.018,0 0.023,0.006l0.467,0.16c0.012,0 0.018,0.006 0.029,0.012l0.39,0.236c0.007,0.006 0.019,0.012 0.024,0.018l0.147,0.142c0.006,0.006 0.012,0.012 0.018,0.018l0.118,0.16c0.012,0.018 0.023,0.041 0.023,0.065l0.042,0.271l0.041,0.207l0.035,0.159l0.023,0.136c0,0.012 0.006,0.023 0,0.035l-0.012,0.166c0,0.029 -0.006,0.053 -0.023,0.077l-0.046,0.061c-0.006,0.006 -0.018,0.018 -0.03,0.024l-0.082,0.065c-0.035,0.029 -0.083,0.041 -0.124,0.023l-0.391,-0.118l-0.277,-0.053l0.023,0l-0.218,-0.006l0.029,0l-0.159,0.03l0.023,-0.006l-0.254,0.094l-0.154,0.047c-0.006,0 -0.018,0 -0.023,0l-0.177,0.018l0.124,-0.166l0.053,0.284l0.053,0.325l0.101,0.75l0.101,0.851l0.089,0.904l0.071,0.934l0.053,0.904l0.023,0.85l0.006,0.385l-0.006,0.36l-0.047,0.649l-0.101,0.604l-0.13,0.555l-0.147,0.52l-0.143,0.496l-0.124,0.484l-0.088,0.496l-0.036,0.503l0,-0.019l0.042,0.545l0.106,0.525l0.147,0.531l0.159,0.537l0.159,0.55l0.131,0.544l0.076,0.543c0,0.006 0,0.012 0,0.023l-0.006,0.52l-0.047,0.627l-0.106,0.614l-0.147,0.579l-0.172,0.549l-0.159,0.525l-0.124,0.497l-0.071,0.467l0,-0.024l0.012,0.461l0,-0.023l0.077,0.438l0.071,0.39l0.076,0.337l0.071,0.301l0.136,0.509l0.124,0.431l0.106,0.396l0.083,0.426l0.053,0.496l0.012,0.283l0.006,0.324l-0.035,0.721l-0.089,0.786l-0.13,0.833l-0.147,0.856l-0.147,0.862l-0.136,0.84l-0.089,0.809l-0.042,0.756c0,0.071 -0.064,0.131 -0.142,0.131l-1.63,0c-0.036,0 -0.071,-0.012 -0.101,-0.042c-0.023,-0.029 -0.042,-0.065 -0.035,-0.106l0.041,-0.75l0.112,-0.75l0.147,-0.756l0.159,-0.763l0.16,-0.792l0.124,-0.82l0.076,-0.881l-0.012,-0.928l0.012,-0.301l0,-0.254l-0.041,-0.426l-0.089,-0.366l-0.112,-0.372l-0.142,-0.432l-0.076,-0.26l-0.077,-0.283l-0.077,-0.325l-0.07,-0.372l-0.071,-0.426l-0.064,-0.473l-0.013,-0.496c0,-0.012 0.006,-0.018 0.006,-0.023l0.077,-0.484l0.136,-0.508l0.178,-0.514l0.171,-0.531l0.142,-0.557l0.095,-0.578l0.018,-0.633l0,-0.389l0.006,0.023l-0.059,-0.373l-0.112,-0.359l-0.136,-0.414l-0.153,-0.49l-0.154,-0.615l-0.064,-0.354l-0.06,-0.396l-0.042,-0.443l-0.035,-0.484l-0.019,-0.526c0,-0.006 0.006,-0.012 0.006,-0.023l0.065,-0.484l0.124,-0.49l0.159,-0.484l0.166,-0.496l0.147,-0.543l0.112,-0.598l0.053,-0.674l-0.012,-0.389l-0.023,-0.443l-0.041,-0.479l-0.065,-0.526l-0.147,-1.099l-0.165,-1.14l-0.137,-1.099l-0.053,-0.514l-0.029,-0.485l-0.018,-0.443l0.012,-0.39l0.053,-0.343c0,-0.006 0,-0.018 0.006,-0.024l0.084,-0.254Zm0.182,0.343l0.006,-0.023l-0.047,0.307l-0.012,0.378l0.012,0.431l0.029,0.473l0.054,0.514l0.136,1.087l0.165,1.14l0.147,1.11l0.065,0.526l0.047,0.49l0.024,0.455l0.006,0.413l-0.054,0.708l-0.112,0.621l-0.159,0.555l-0.165,0.496l-0.148,0.473l-0.124,0.455l-0.064,0.484l0,-0.023l0.012,0.514l0.035,0.473l0.042,0.432l0.059,0.385l0.065,0.342l0.142,0.591l0.153,0.49l0.142,0.425l0.118,0.396l0.06,0.372l0,0.414l-0.024,0.668l-0.094,0.615l-0.154,0.566l-0.171,0.531l-0.165,0.502l-0.137,0.473l-0.076,0.484l0,-0.023l0.006,0.461l0.064,0.467l0.071,0.42l0.071,0.359l0.076,0.313l0.077,0.284l0.064,0.248l0.143,0.432l0.124,0.395l0.088,0.402l0.048,0.455l0,0.266l-0.012,0.283l0.006,0.963l-0.077,0.893l-0.124,0.833l-0.159,0.792l-0.16,0.762l-0.147,0.744l-0.112,0.727l-0.041,0.75l-0.142,-0.153l1.63,0l-0.142,0.136l0.047,-0.768l0.089,-0.821l0.136,-0.851l0.148,-0.863l0.147,-0.844l0.13,-0.822l0.083,-0.773l0.035,-0.697l-0.006,-0.318l-0.006,-0.266l-0.054,-0.473l-0.082,-0.402l-0.106,-0.396l-0.124,-0.431l-0.136,-0.521l-0.071,-0.302l-0.077,-0.348l-0.07,-0.391l-0.077,-0.438c0,-0.012 0,-0.018 -0.006,-0.023l-0.012,-0.461c0,-0.006 0.006,-0.018 0.006,-0.023l0.071,-0.496l0.13,-0.508l0.165,-0.525l0.159,-0.538l0.148,-0.562l0.106,-0.578l0.041,-0.615l0.006,-0.52l0.006,0.023l-0.077,-0.52l-0.13,-0.531l-0.147,-0.544l-0.171,-0.544l-0.148,-0.555l-0.106,-0.561l-0.041,-0.544c-0.006,-0.007 -0.006,-0.013 0,-0.019l0.035,-0.537l0.089,-0.508l0.124,-0.496l0.142,-0.496l0.148,-0.508l0.13,-0.544l0.101,-0.567l0.041,-0.639l0.006,-0.348l-0.006,-0.385l-0.018,-0.838l-0.054,-0.904l-0.07,-0.921l-0.089,-0.904l-0.101,-0.839l-0.101,-0.75l-0.053,-0.312l-0.054,-0.284c-0.006,-0.041 0,-0.083 0.024,-0.112c0.023,-0.029 0.059,-0.053 0.1,-0.053l0.178,-0.018l-0.023,0l0.13,-0.035l0.254,-0.095c0.006,-0.006 0.018,-0.006 0.023,-0.006l0.159,-0.029c0.013,0 0.018,-0.006 0.03,-0.006l0.218,0.006c0.013,0.005 0.019,0.005 0.024,0.005l0.301,0.06l0.39,0.118l-0.124,0.029l0.083,-0.065l-0.029,0.023l0.047,-0.065l-0.023,0.077l0.012,-0.166l0,0.035l-0.023,-0.13l-0.035,-0.165l-0.042,-0.219l-0.041,-0.272l0.023,0.065l-0.118,-0.16l0.018,0.018l-0.147,-0.142l0.023,0.018l-0.39,-0.236l0.029,0.012l-0.467,-0.159l0.024,0.006l-0.503,-0.077l0.03,0l-0.509,0.03l0.03,0l-0.467,0.13l0.035,-0.018l-0.39,0.242l0.029,-0.03l-0.153,0.171l0.018,-0.018l-0.118,0.201l0.012,-0.029l-0.083,0.256Z" style="fill:#010101;fill-rule:nonzero;stroke:#010101;stroke-width:0.06px;"/><path d="M53.739,133.175c-2.144,-1.253 8.536,-4.921 14.745,-5.901c3.769,-1.088 4.826,0.177 8.04,0c3.22,-0.184 8.312,-1.436 11.259,-1.076c2.948,0.361 4.023,2.145 6.434,3.221c2.416,1.074 7.101,1.789 8.04,3.219l-2.41,4.295c-6.746,0.443 -28.414,0.531 -33.772,0c-3.888,-0.538 -12.271,-2.724 -12.336,-3.758Z" style="fill:#fff;"/><path d="M53.603,133.217l0.054,0.076l-0.166,-0.124c-0.012,-0.012 -0.023,-0.023 -0.035,-0.035l-0.089,-0.136c-0.012,-0.018 -0.018,-0.042 -0.018,-0.06l-0.023,-0.153c-0.006,-0.018 -0.006,-0.035 0,-0.059l0.041,-0.16c0.006,-0.012 0.012,-0.023 0.018,-0.035l0.106,-0.172c0.006,-0.006 0.012,-0.012 0.012,-0.018l0.16,-0.184c0.006,-0.006 0.012,-0.012 0.018,-0.018l0.225,-0.189l0.277,-0.2l0.337,-0.212l0.372,-0.207l0.413,-0.225l0.461,-0.213l0.49,-0.225l0.532,-0.23l1.146,-0.449l1.235,-0.443l1.316,-0.437l1.354,-0.413l1.388,-0.402l1.371,-0.354l1.353,-0.32l1.3,-0.271l1.211,-0.213l0.661,-0.177l0.633,-0.13l0.578,-0.082l0.538,-0.042l0.969,-0.006l0.892,0.095l0.856,0.136l0.881,0.13l0.461,0.047l0.496,0.036l0.525,0.006l0.573,-0.019l0.62,-0.041l0.655,-0.064l1.412,-0.184l1.495,-0.219l1.529,-0.23l1.519,-0.195l1.465,-0.146l0.703,-0.041l0.661,-0.019l0.627,0.019l0.585,0.053l0.543,0.082l0.502,0.112l0.898,0.313l0.803,0.396l0.738,0.455l0.703,0.49l0.709,0.49l0.757,0.467l0.833,0.425l0.472,0.189l0.515,0.195l0.555,0.184l0.585,0.183l1.205,0.354l1.217,0.36l1.151,0.384l0.532,0.201l0.49,0.207l0.432,0.225l0.384,0.242l0.313,0.254c0.006,0.006 0.012,0.012 0.018,0.018l0.219,0.26c0.036,0.047 0.042,0.105 0.012,0.159l-2.41,4.295c-0.023,0.042 -0.064,0.071 -0.111,0.071l-0.674,0.041l-0.756,0.035l-0.839,0.035l-0.904,0.036l-0.969,0.035l-1.027,0.029l-1.081,0.024l-1.128,0.023l-1.164,0.023l-1.205,0.018l-2.499,0.035l-2.569,0.018l-2.6,0.012l-2.587,0l-2.522,-0.018l-1.224,-0.012l-1.188,-0.012l-1.151,-0.018l-1.11,-0.023l-1.058,-0.023l-1.004,-0.023l-0.939,-0.036l-0.875,-0.029l-0.809,-0.042l-0.721,-0.041l-0.639,-0.041l-0.555,-0.047l-0.786,-0.119l-0.868,-0.153l-0.934,-0.183l-0.986,-0.213l-2.038,-0.484l-1.021,-0.266l-0.993,-0.277l-0.944,-0.284l-0.887,-0.284l-0.797,-0.277l-0.709,-0.277l-0.585,-0.266l-0.248,-0.137l-0.207,-0.117l-0.171,-0.125l-0.137,-0.123c-0.006,-0.006 -0.012,-0.012 -0.018,-0.018l-0.076,-0.107c-0.012,-0.018 -0.018,-0.029 -0.024,-0.047l-0.032,-0.099Zm0.302,0.023l-0.018,-0.048l0.076,0.106l-0.018,-0.018l0.101,0.1l0.159,0.113l0.195,0.111l0.225,0.131l0.572,0.254l0.697,0.277l0.798,0.277l0.874,0.278l0.945,0.277l0.992,0.278l1.011,0.266l2.038,0.484l0.975,0.213l0.934,0.183l0.856,0.153l0.773,0.118l0.544,0.048l0.638,0.035l0.721,0.041l0.798,0.041l0.874,0.029l0.939,0.036l1.004,0.024l1.058,0.023l1.11,0.023l1.152,0.018l1.187,0.012l1.224,0.012l2.517,0.018l2.581,0l2.6,-0.012l2.569,-0.018l2.499,-0.035l1.205,-0.018l1.163,-0.023l1.129,-0.024l1.081,-0.023l1.027,-0.029l0.969,-0.036l0.898,-0.035l0.833,-0.035l0.756,-0.029l0.674,-0.042l-0.113,0.071l2.41,-4.295l0.012,0.16l-0.218,-0.261l0.018,0.019l-0.278,-0.23l-0.365,-0.23l-0.414,-0.213l-0.479,-0.207l-0.52,-0.201l-1.14,-0.378l-1.217,-0.36l-1.218,-0.36l-0.584,-0.183l-0.567,-0.184l-0.525,-0.195l-0.485,-0.201l-0.856,-0.437l-0.768,-0.479l-0.709,-0.49l-0.691,-0.479l-0.715,-0.442l-0.768,-0.385l-0.874,-0.301l-0.479,-0.113l-0.521,-0.082l-0.572,-0.047l-0.614,-0.018l-0.65,0.012l-0.691,0.041l-1.453,0.147l-1.518,0.194l-1.53,0.23l-1.494,0.219l-1.424,0.184l-0.668,0.064l-0.632,0.048l-0.585,0.018l-0.537,-0.012l-0.509,-0.036l-0.473,-0.047l-0.88,-0.129l-0.845,-0.137l-0.862,-0.089l-0.951,0l-0.514,0.042l-0.567,0.082l-0.608,0.131l-0.686,0.177l-1.211,0.212l-1.288,0.272l-1.347,0.319l-1.364,0.354l-1.383,0.391l-1.347,0.414l-1.306,0.437l-1.234,0.442l-1.134,0.449l-0.526,0.219l-0.484,0.225l-0.448,0.213l-0.414,0.213l-0.36,0.207l-0.319,0.2l-0.26,0.188l-0.225,0.189l0.019,-0.018l-0.16,0.184l0.012,-0.018l-0.106,0.171l0.019,-0.042l-0.042,0.16l0,-0.053l0.023,0.152l-0.018,-0.059l0.089,0.137l-0.035,-0.036l0.165,0.124c0.023,0.018 0.041,0.047 0.048,0.077l0.028,0.105Z" style="fill:#010101;fill-rule:nonzero;stroke:#010101;stroke-width:0.06px;"/><path d="M50.708,129.383c-0.484,10.326 6.558,30.518 27.398,31.096c21.515,-0.69 28.071,-21.515 27.397,-31.096c-0.212,3.148 -9.546,5.795 -22.636,6.338c-1.571,0.065 -3.167,0.101 -4.762,0.101c-1.595,0 -3.19,-0.035 -4.762,-0.101c-13.088,-0.543 -22.635,-3.213 -22.635,-6.338" style="fill:#010101;"/><path d="M56.988,134.781l1.348,-0.744l1.305,-0.738l1.271,-0.709l1.24,-0.645l1.211,-0.555l0.603,-0.23l0.585,-0.207l0.585,-0.165l0.579,-0.124l0.573,-0.076l0.572,-0.036l0.573,0.036l0.597,0.111l0.608,0.178l0.614,0.23l0.608,0.283l0.603,0.313l1.164,0.702l1.075,0.715l0.49,0.344l0.455,0.313l0.407,0.283l0.349,0.242l0.302,0.184l0.236,0.118c0.047,0.023 0.064,0.083 0.041,0.13c-0.023,0.047 -0.083,0.064 -0.13,0.041l-0.248,-0.129l-0.308,-0.184l-0.354,-0.242l-0.407,-0.283l-0.455,-0.314l-0.479,-0.342l-1.075,-0.715l-1.151,-0.691l-0.591,-0.313l-0.597,-0.278l-0.603,-0.224l-0.585,-0.178l-0.579,-0.106l-0.555,-0.036l-0.55,0.03l-0.562,0.077l-0.566,0.123l-0.573,0.166l-0.585,0.195l-0.591,0.23l-1.199,0.555l-1.24,0.639l-1.271,0.703l-1.306,0.744l-1.347,0.744c-0.047,0.029 -0.101,0.012 -0.13,-0.035c-0.022,-0.046 -0.004,-0.1 0.043,-0.13Z" style="fill:#010101;fill-rule:nonzero;stroke:#010101;stroke-width:0.06px;"/><path d="M58.69,137.145l1.382,-0.697l1.395,-0.603l1.382,-0.537l1.335,-0.491l1.259,-0.466l1.163,-0.461l0.538,-0.242l0.496,-0.248l0.467,-0.26l0.419,-0.267l0.372,-0.271l0.319,-0.283l0.266,-0.271l0.23,-0.277l0.366,-0.557l0.284,-0.566l0.242,-0.585l0.254,-0.597l0.313,-0.62l0.201,-0.325l0.23,-0.324c0.035,-0.042 0.095,-0.054 0.136,-0.023c0.041,0.035 0.053,0.094 0.018,0.135l-0.225,0.313l-0.188,0.313l-0.313,0.607l-0.254,0.598l-0.242,0.596l-0.295,0.58l-0.379,0.578l-0.242,0.289l-0.277,0.284l-0.331,0.284l-0.384,0.283l-0.431,0.271l-0.467,0.266l-0.509,0.248l-0.549,0.242l-1.164,0.467l-1.258,0.467l-1.335,0.484l-1.371,0.537l-1.382,0.604l-1.383,0.697c-0.047,0.023 -0.106,0.006 -0.13,-0.042c-0.024,-0.047 -0.006,-0.107 0.042,-0.13Z" style="fill:#010101;fill-rule:nonzero;stroke:#010101;stroke-width:0.06px;"/><path d="M74.875,129.246l0.207,-0.041l0.242,-0.059l0.277,-0.078l0.319,-0.088l0.715,-0.195l0.797,-0.207l0.839,-0.183l0.851,-0.142l0.821,-0.059l0.763,0.029l0.372,0.07l0.378,0.101l0.762,0.284l0.774,0.365l0.762,0.408l0.721,0.42l0.662,0.389l0.572,0.326l0.473,0.224c0.048,0.024 0.071,0.077 0.048,0.124c-0.024,0.047 -0.083,0.071 -0.124,0.047l-0.485,-0.236l-0.584,-0.324l-0.65,-0.391l-0.721,-0.406l-0.75,-0.408l-0.762,-0.36l-0.751,-0.278l-0.354,-0.1l-0.348,-0.065l-0.739,-0.035l-0.809,0.06l-0.839,0.141l-0.833,0.184l-0.792,0.207l-0.715,0.195l-0.318,0.088l-0.29,0.077l-0.242,0.06l-0.207,0.041c-0.053,0.012 -0.1,-0.023 -0.111,-0.071c-0.014,-0.055 0.023,-0.102 0.069,-0.114Z" style="fill:#010101;fill-rule:nonzero;stroke:#010101;stroke-width:0.06px;"/><path d="M77.215,135.733l0.649,-0.372l0.567,-0.372l0.508,-0.366l0.455,-0.349l0.401,-0.348l0.36,-0.332l0.626,-0.619l0.544,-0.544l0.525,-0.443c0.006,0 0.012,-0.006 0.012,-0.006l0.556,-0.325c0.006,-0.006 0.012,-0.006 0.018,-0.012l0.308,-0.112c0.006,0 0.006,0 0.012,0l0.337,-0.071c0.005,0 0.012,0 0.012,-0.006l0.36,-0.023c0.006,0 0.012,0 0.018,0.006l0.372,0.035l0.39,0.084l0.396,0.129l0.396,0.166l0.39,0.195l0.768,0.449l0.727,0.472l0.674,0.461l0.579,0.384l0.254,0.148l0.213,0.1c0.047,0.024 0.07,0.077 0.047,0.125c-0.023,0.047 -0.077,0.07 -0.124,0.047l-0.236,-0.112l-0.254,-0.147l-0.591,-0.385l-0.662,-0.461l-0.727,-0.473l-0.756,-0.437l-0.378,-0.194l-0.384,-0.154l-0.372,-0.13l-0.366,-0.083l-0.372,-0.035l0.018,0l-0.36,0.023l0.012,0l-0.337,0.071l0.012,-0.006l-0.307,0.112l0.018,-0.006l-0.556,0.324l0.012,-0.006l-0.514,0.432l-0.544,0.543l-0.638,0.621l-0.36,0.342l-0.413,0.349l-0.455,0.354l-0.52,0.373l-0.579,0.371l-0.65,0.373c-0.041,0.029 -0.101,0.012 -0.124,-0.036c-0.032,-0.041 -0.015,-0.101 0.033,-0.124Z" style="fill:#010101;fill-rule:nonzero;stroke:#010101;stroke-width:0.06px;"/><path d="M85.343,135.727l1.358,-0.744l1.342,-0.721l1.317,-0.686l1.281,-0.62l1.234,-0.544l1.17,-0.442l1.099,-0.325l0.515,-0.112l0.496,-0.071l0.479,-0.029l0.461,0.041l0.437,0.084l0.426,0.129l0.407,0.166l0.39,0.195l0.715,0.449l0.65,0.479l0.578,0.461l0.514,0.383l0.225,0.143l0.207,0.1c0.047,0.024 0.07,0.083 0.047,0.125c-0.023,0.047 -0.082,0.07 -0.129,0.047l-0.225,-0.112l-0.236,-0.153l-0.52,-0.385l-0.574,-0.461l-0.637,-0.467l-0.703,-0.437l-0.366,-0.194l-0.396,-0.154l-0.407,-0.13l-0.42,-0.083l-0.437,-0.035l-0.455,0.023l-0.484,0.071l-0.502,0.112l-1.087,0.318l-1.158,0.438l-1.229,0.543l-1.276,0.621l-1.317,0.686l-1.341,0.715l-1.358,0.744c-0.047,0.029 -0.101,0.012 -0.13,-0.036c-0.025,-0.049 -0.008,-0.103 0.039,-0.132Z" style="fill:#010101;fill-rule:nonzero;stroke:#010101;stroke-width:0.06px;"/><path d="M63.569,128.159l0.147,0.024l0.219,0.029l0.271,0.041l0.319,0.041l0.378,0.053l0.408,0.06l0.909,0.13l0.975,0.16l0.999,0.171l0.969,0.188l0.448,0.102l0.42,0.1l0.827,0.236l0.856,0.283l1.707,0.639l0.833,0.324l0.804,0.284l0.744,0.242l0.686,0.177l0.603,0.125l0.514,0.1l0.455,0.065l0.425,0.036l0.42,-0.019l0.454,-0.047l0.515,-0.101l0.603,-0.16l0.337,-0.117l0.359,-0.148l0.78,-0.401l0.845,-0.473l0.868,-0.515l0.893,-0.496l0.88,-0.419l0.432,-0.165l0.419,-0.137l0.413,-0.088l0.396,-0.041l0.39,0.006l0.401,0.07l0.396,0.101l0.396,0.142l0.779,0.366l0.763,0.443l0.709,0.454l0.649,0.438l0.567,0.373l0.242,0.141l0.219,0.102c0.047,0.023 0.07,0.076 0.047,0.123c-0.023,0.048 -0.077,0.071 -0.124,0.048l-0.23,-0.112l-0.254,-0.142l-0.567,-0.372l-0.649,-0.438l-0.709,-0.455l-0.738,-0.432l-0.769,-0.359l-0.384,-0.137l-0.372,-0.1l-0.378,-0.064l-0.366,-0.013l-0.372,0.042l-0.401,0.088l-0.408,0.124l-0.419,0.165l-0.869,0.414l-0.88,0.49l-0.88,0.514l-0.845,0.484l-0.792,0.402l-0.372,0.159l-0.349,0.118l-0.62,0.16l-0.531,0.1l-0.467,0.053l-0.443,0.012l-0.438,-0.035l-0.466,-0.064l-0.515,-0.101l-0.608,-0.124l-0.691,-0.178l-0.756,-0.242l-0.804,-0.295l-0.833,-0.318l-1.707,-0.633l-0.845,-0.283l-0.815,-0.236l-0.419,-0.101l-0.449,-0.101l-0.957,-0.189l-0.998,-0.171l-0.975,-0.159l-0.91,-0.131l-0.407,-0.059l-0.372,-0.053l-0.325,-0.041l-0.271,-0.042l-0.219,-0.029l-0.147,-0.024c-0.054,-0.006 -0.089,-0.053 -0.077,-0.105c0.003,-0.052 0.051,-0.088 0.104,-0.077Z" style="fill:#010101;fill-rule:nonzero;stroke:#010101;stroke-width:0.06px;"/><path d="M57.16,130.352l0.325,0.117l0.359,0.119l0.821,0.254l0.939,0.266l1.034,0.277l1.11,0.277l1.17,0.277l1.217,0.272l1.24,0.26l2.481,0.467l1.211,0.195l1.164,0.165l1.087,0.13l1.016,0.089l0.91,0.041l0.785,-0.006l0.697,-0.076l-0.018,0l0.644,-0.172l0.585,-0.242l0.543,-0.307l0.491,-0.35l0.454,-0.383l0.414,-0.402l0.384,-0.408l0.673,-0.797l0.296,-0.354l0.283,-0.302l0.254,-0.248c0.007,-0.006 0.013,-0.006 0.013,-0.012l0.236,-0.165c0.012,-0.006 0.018,-0.006 0.029,-0.013l0.225,-0.07c0.012,-0.006 0.023,-0.006 0.041,0l0.213,0.029c0.047,0.006 0.089,0.054 0.076,0.107c-0.006,0.047 -0.053,0.088 -0.105,0.076l-0.213,-0.029l0.041,0l-0.225,0.07l0.029,-0.012l-0.235,0.166l0.012,-0.012l-0.255,0.236l-0.271,0.301l-0.295,0.354l-0.686,0.798l-0.384,0.42l-0.426,0.412l-0.467,0.396l-0.514,0.354l-0.555,0.313l-0.608,0.254l-0.645,0.171c-0.006,0 -0.012,0 -0.018,0l-0.709,0.083l-0.797,0.006l-0.922,-0.047l-1.017,-0.09l-1.099,-0.129l-1.163,-0.166l-1.211,-0.195l-2.493,-0.467l-1.24,-0.26l-1.218,-0.271l-1.169,-0.277l-1.123,-0.277l-1.033,-0.277l-0.939,-0.267l-0.821,-0.254l-0.372,-0.124l-0.325,-0.118c-0.047,-0.018 -0.076,-0.071 -0.059,-0.118c0.017,-0.047 0.08,-0.073 0.128,-0.055Z" style="fill:#010101;fill-rule:nonzero;stroke:#010101;stroke-width:0.06px;"/><path d="M134.046,98.18l-26.699,-0.368l-3.782,-32.618l34.47,0l-3.989,32.986Z" style="fill-rule:nonzero;stroke:#000;stroke-width:1px;stroke-linejoin:miter;stroke-miterlimit:4;"/><ellipse cx="120.793" cy="65.106" rx="17.241" ry="3.052" style="fill:#6b7674;stroke:#000;stroke-width:1px;stroke-linejoin:miter;stroke-miterlimit:4;"/><path d="M134.046,98.18c0,1.316 -5.964,2.382 -13.319,2.382c-7.357,0 -13.38,-1.434 -13.38,-2.75c0,-1.314 6.022,-2.014 13.38,-2.014c7.355,0 13.319,1.066 13.319,2.382Z" style="fill-rule:nonzero;stroke:#000;stroke-width:1px;stroke-linejoin:miter;stroke-miterlimit:4;"/><path d="M100.272,15.51l0.272,0.002l0.272,0.002l0.272,0.003l0.272,0.004l0.272,0.004l0.272,0.006l0.272,0.007l0.27,0.007l0.272,0.008l0.27,0.009l0.271,0.01l0.27,0.011l0.27,0.011l0.27,0.013l0.27,0.013l0.27,0.014l0.268,0.015l0.269,0.016l0.269,0.016l0.269,0.018l0.269,0.018l0.268,0.019l0.267,0.02l0.269,0.021l0.268,0.022l0.265,0.022l0.269,0.023l0.267,0.025l0.266,0.024l0.267,0.026l0.266,0.027l0.265,0.027l0.267,0.029l0.266,0.029l0.264,0.03l0.264,0.03l0.265,0.032l0.266,0.032l0.264,0.034l0.264,0.033l0.265,0.035l0.264,0.036l0.262,0.036l0.262,0.038l0.262,0.037l0.264,0.04l0.263,0.039l0.261,0.041l0.263,0.041l0.262,0.042l0.26,0.043l0.26,0.044l0.259,0.044l0.262,0.045l0.262,0.047l0.258,0.046l0.261,0.048l0.26,0.049l0.258,0.049l0.257,0.05l0.26,0.051l0.26,0.052l0.256,0.052l0.256,0.052l0.265,0.056l0.509,0.109l0.513,0.114l0.511,0.116l0.51,0.119l0.509,0.123l0.507,0.126l0.509,0.129l0.506,0.132l0.504,0.135l0.502,0.137l0.502,0.141l0.502,0.144l0.498,0.147l0.498,0.15l0.498,0.153l0.497,0.156l0.494,0.16l0.492,0.161l0.49,0.164l0.489,0.168l0.49,0.17l0.489,0.174l0.487,0.177l0.485,0.18l0.481,0.181l0.48,0.184l0.482,0.189l0.479,0.191l0.479,0.193l0.476,0.197l0.472,0.198l0.474,0.202l0.472,0.205l0.468,0.207l0.47,0.21l0.47,0.215l0.465,0.216l0.462,0.217l0.462,0.221l0.461,0.224l0.46,0.227l0.457,0.229l0.457,0.232l0.454,0.235l0.453,0.237l0.454,0.242l0.449,0.242l0.444,0.243l0.447,0.248l0.447,0.252l0.442,0.253l0.441,0.255l0.439,0.258l0.441,0.262l0.434,0.263l0.434,0.266l0.435,0.27l0.426,0.268l0.432,0.275l0.429,0.277l0.421,0.275l0.427,0.283l0.423,0.285l0.419,0.284l0.417,0.288l0.419,0.292l0.415,0.294l0.408,0.292l0.413,0.299l0.411,0.302l0.405,0.301l0.407,0.307l0.405,0.308l0.402,0.311l0.397,0.311l0.396,0.312l0.397,0.318l0.395,0.321l0.392,0.322l0.387,0.322l0.39,0.326l0.386,0.33l0.385,0.331l0.382,0.334l0.376,0.332l0.379,0.338l0.376,0.34l0.374,0.342l0.372,0.344l0.37,0.347l0.367,0.349l0.366,0.35l0.363,0.353l0.361,0.355l0.359,0.357l0.356,0.359l0.355,0.361l0.352,0.363l0.35,0.365l0.348,0.367l0.345,0.37l0.348,0.375l0.34,0.373l0.339,0.375l0.336,0.377l0.334,0.379l0.336,0.385l0.329,0.383l0.327,0.385l0.329,0.391l0.322,0.388l0.32,0.39l0.321,0.397l0.316,0.394l0.316,0.401l0.314,0.402l0.304,0.395l0.31,0.406l0.306,0.408l0.301,0.405l0.301,0.412l0.296,0.408l0.294,0.41l0.295,0.417l0.291,0.419l0.29,0.42l0.283,0.417l0.285,0.424l0.281,0.426l0.276,0.421l0.276,0.429l0.275,0.431l0.271,0.433l0.265,0.428l0.267,0.436l0.264,0.437l0.261,0.439l0.258,0.44l0.256,0.442l0.253,0.444l0.247,0.439l0.249,0.447l0.248,0.454l0.242,0.45l0.236,0.446l0.238,0.452l0.237,0.461l0.232,0.456l0.229,0.457l0.225,0.459l0.224,0.46l0.22,0.462l0.218,0.463l0.218,0.471l0.212,0.466l0.21,0.467l0.206,0.469l0.204,0.47l0.204,0.478l0.198,0.473l0.196,0.474l0.195,0.482l0.189,0.477l0.187,0.478l0.187,0.486l0.183,0.487l0.177,0.482l0.176,0.483l0.174,0.491l0.169,0.486l0.167,0.486l0.166,0.495l0.163,0.496l0.159,0.498l0.154,0.491l0.152,0.493l0.153,0.508l0.144,0.494l0.144,0.497l0.143,0.511l0.136,0.498l0.136,0.507l0.131,0.507l0.128,0.502l0.126,0.509l0.123,0.511l0.119,0.512l0.117,0.513l0.111,0.506l0.11,0.508l0.057,0.272l0.051,0.251l0.055,0.266l0.052,0.266l0.046,0.237l0.053,0.266l0.05,0.266l0.047,0.253l0.046,0.252l0.049,0.267l0.047,0.268l0.044,0.253l0.045,0.268l0.042,0.254l0.042,0.253l0.044,0.269l0.042,0.269l0.039,0.254l0.041,0.27l0.039,0.269l0.035,0.241l0.039,0.27l0.037,0.27l0.035,0.256l0.036,0.271l0.034,0.27l0.032,0.257l0.032,0.257l0.032,0.271l0.032,0.272l0.028,0.257l0.031,0.272l0.028,0.272l0.025,0.244l0.028,0.272l0.026,0.273l0.024,0.259l0.025,0.273l0.024,0.273l0.023,0.274l0.02,0.259l0.021,0.26l0.02,0.274l0.02,0.274l0.017,0.26l0.017,0.26l0.018,0.275l0.016,0.275l0.015,0.276l0.013,0.261l0.014,0.275l0.012,0.276l0.011,0.247l0.011,0.276l0.011,0.291l0.016,0.524l0.007,0.277l0.007,0.277l0.01,0.525l0.005,0.292l0.002,0.263l0.003,0.263l0.001,0.292l0,0.534l-0.001,0.292l-0.003,0.263l-0.002,0.263l-0.005,0.292l-0.005,0.263l-0.005,0.262l-0.007,0.277l-0.007,0.277l-0.008,0.262l-0.008,0.262l-0.011,0.291l-0.011,0.276l-0.011,0.247l-0.012,0.276l-0.014,0.275l-0.013,0.261l-0.015,0.276l-0.016,0.275l-0.018,0.275l-0.017,0.26l-0.017,0.26l-0.02,0.274l-0.02,0.274l-0.021,0.26l-0.02,0.259l-0.023,0.274l-0.024,0.273l-0.025,0.274l-0.024,0.258l-0.026,0.273l-0.028,0.273l-0.025,0.243l-0.028,0.272l-0.031,0.272l-0.028,0.257l-0.032,0.272l-0.032,0.272l-0.032,0.256l-0.032,0.257l-0.034,0.271l-0.036,0.27l-0.035,0.256l-0.037,0.27l-0.039,0.27l-0.035,0.241l-0.039,0.269l-0.041,0.27l-0.039,0.254l-0.042,0.269l-0.044,0.269l-0.042,0.254l-0.042,0.253l-0.045,0.268l-0.044,0.253l-0.047,0.268l-0.049,0.267l-0.046,0.253l-0.047,0.252l-0.05,0.266l-0.053,0.267l-0.046,0.237l-0.052,0.266l-0.055,0.265l-0.051,0.251l-0.057,0.273l-0.11,0.507l-0.111,0.506l-0.117,0.513l-0.119,0.512l-0.123,0.511l-0.126,0.51l-0.128,0.501l-0.131,0.508l-0.136,0.506l-0.136,0.498l-0.143,0.512l-0.144,0.496l-0.144,0.495l-0.153,0.508l-0.152,0.492l-0.154,0.492l-0.159,0.497l-0.163,0.496l-0.166,0.495l-0.167,0.487l-0.169,0.485l-0.174,0.492l-0.176,0.483l-0.177,0.481l-0.183,0.488l-0.187,0.486l-0.187,0.478l-0.189,0.477l-0.195,0.482l-0.196,0.474l-0.198,0.472l-0.204,0.478l-0.204,0.47l-0.206,0.469l-0.21,0.467l-0.212,0.466l-0.218,0.471l-0.218,0.463l-0.22,0.462l-0.224,0.46l-0.225,0.459l-0.229,0.458l-0.232,0.456l-0.237,0.46l-0.238,0.453l-0.236,0.445l-0.242,0.45l-0.248,0.454l-0.249,0.447l-0.247,0.439l-0.253,0.444l-0.256,0.442l-0.258,0.441l-0.261,0.439l-0.264,0.437l-0.267,0.436l-0.265,0.428l-0.271,0.432l-0.275,0.431l-0.276,0.429l-0.276,0.422l-0.281,0.426l-0.285,0.423l-0.283,0.417l-0.29,0.421l-0.291,0.419l-0.295,0.416l-0.294,0.411l-0.296,0.408l-0.301,0.411l-0.301,0.405l-0.306,0.408l-0.31,0.406l-0.304,0.395l-0.314,0.403l-0.316,0.4l-0.316,0.394l-0.321,0.397l-0.32,0.39l-0.322,0.389l-0.329,0.391l-0.327,0.385l-0.329,0.382l-0.336,0.386l-0.334,0.378l-0.336,0.377l-0.339,0.375l-0.341,0.374l-0.347,0.375l-0.345,0.369l-0.348,0.367l-0.35,0.365l-0.353,0.363l-0.354,0.361l-0.357,0.359l-0.358,0.357l-0.361,0.355l-0.363,0.353l-0.366,0.351l-0.367,0.348l-0.37,0.347l-0.372,0.344l-0.374,0.342l-0.376,0.341l-0.379,0.338l-0.376,0.332l-0.382,0.333l-0.385,0.332l-0.386,0.329l-0.39,0.327l-0.387,0.321l-0.392,0.323l-0.395,0.32l-0.397,0.318l-0.396,0.312l-0.397,0.311l-0.402,0.311l-0.405,0.309l-0.407,0.306l-0.405,0.301l-0.411,0.302l-0.413,0.299l-0.408,0.292l-0.415,0.294l-0.42,0.293l-0.416,0.287l-0.419,0.285l-0.423,0.284l-0.427,0.283l-0.421,0.275l-0.429,0.278l-0.432,0.275l-0.426,0.268l-0.435,0.27l-0.434,0.265l-0.434,0.263l-0.441,0.262l-0.439,0.258l-0.441,0.255l-0.442,0.253l-0.448,0.252l-0.446,0.248l-0.444,0.243l-0.449,0.243l-0.454,0.241l-0.453,0.237l-0.454,0.235l-0.456,0.232l-0.458,0.229l-0.46,0.227l-0.461,0.224l-0.463,0.221l-0.461,0.218l-0.465,0.215l-0.47,0.215l-0.47,0.21l-0.468,0.207l-0.472,0.205l-0.474,0.202l-0.472,0.198l-0.476,0.197l-0.479,0.194l-0.479,0.191l-0.482,0.188l-0.48,0.184l-0.481,0.182l-0.485,0.179l-0.487,0.177l-0.489,0.174l-0.49,0.171l-0.489,0.167l-0.49,0.164l-0.492,0.162l-0.494,0.159l-0.497,0.156l-0.498,0.153l-0.498,0.15l-0.498,0.147l-0.502,0.144l-0.502,0.141l-0.502,0.137l-0.504,0.135l-0.506,0.132l-0.509,0.129l-0.507,0.126l-0.509,0.123l-0.51,0.119l-0.512,0.117l-0.512,0.113l-0.509,0.109l-0.265,0.056l-0.256,0.052l-0.256,0.053l-0.26,0.051l-0.26,0.051l-0.257,0.05l-0.258,0.049l-0.26,0.049l-0.261,0.048l-0.259,0.046l-0.261,0.047l-0.262,0.045l-0.26,0.044l-0.259,0.044l-0.26,0.043l-0.262,0.042l-0.263,0.041l-0.261,0.041l-0.263,0.04l-0.264,0.039l-0.262,0.037l-0.262,0.038l-0.262,0.036l-0.264,0.036l-0.265,0.035l-0.263,0.033l-0.266,0.034l-0.265,0.032l-0.265,0.032l-0.264,0.03l-0.264,0.03l-0.266,0.029l-0.267,0.029l-0.265,0.027l-0.266,0.027l-0.267,0.026l-0.266,0.024l-0.267,0.025l-0.269,0.023l-0.265,0.022l-0.268,0.022l-0.269,0.021l-0.267,0.02l-0.268,0.019l-0.269,0.018l-0.269,0.018l-0.269,0.016l-0.269,0.016l-0.268,0.015l-0.27,0.014l-0.27,0.013l-0.27,0.013l-0.27,0.011l-0.271,0.011l-0.27,0.01l-0.27,0.009l-0.272,0.008l-0.271,0.007l-0.271,0.007l-0.272,0.006l-0.272,0.004l-0.272,0.004l-0.272,0.003l-0.272,0.002l-0.272,0.002l-0.273,0l-0.273,0l-0.272,-0.002l-0.272,-0.002l-0.272,-0.003l-0.272,-0.004l-0.272,-0.005l-0.272,-0.005l-0.27,-0.007l-0.271,-0.007l-0.272,-0.008l-0.271,-0.009l-0.27,-0.01l-0.27,-0.011l-0.271,-0.011l-0.269,-0.013l-0.27,-0.013l-0.269,-0.014l-0.27,-0.015l-0.27,-0.016l-0.268,-0.016l-0.269,-0.018l-0.268,-0.018l-0.268,-0.019l-0.268,-0.02l-0.268,-0.021l-0.268,-0.022l-0.267,-0.022l-0.266,-0.023l-0.267,-0.024l-0.268,-0.025l-0.266,-0.026l-0.266,-0.027l-0.265,-0.027l-0.267,-0.029l-0.266,-0.029l-0.264,-0.03l-0.264,-0.03l-0.266,-0.032l-0.265,-0.032l-0.264,-0.034l-0.263,-0.033l-0.265,-0.035l-0.262,-0.036l-0.263,-0.036l-0.266,-0.038l-0.261,-0.038l-0.262,-0.039l-0.263,-0.039l-0.261,-0.041l-0.263,-0.041l-0.26,-0.042l-0.261,-0.043l-0.264,-0.044l-0.259,-0.044l-0.26,-0.045l-0.261,-0.047l-0.258,-0.046l-0.261,-0.048l-0.261,-0.049l-0.257,-0.049l-0.257,-0.05l-0.261,-0.051l-0.259,-0.052l-0.256,-0.052l-0.259,-0.053l-0.262,-0.055l-0.508,-0.109l-0.514,-0.114l-0.511,-0.116l-0.51,-0.119l-0.511,-0.123l-0.506,-0.126l-0.507,-0.129l-0.505,-0.131l-0.504,-0.135l-0.507,-0.139l-0.5,-0.141l-0.498,-0.143l-0.501,-0.147l-0.499,-0.15l-0.496,-0.153l-0.497,-0.156l-0.495,-0.16l-0.491,-0.161l-0.49,-0.164l-0.492,-0.168l-0.486,-0.17l-0.49,-0.174l-0.486,-0.177l-0.483,-0.179l-0.484,-0.182l-0.48,-0.184l-0.482,-0.189l-0.48,-0.191l-0.478,-0.193l-0.476,-0.197l-0.473,-0.198l-0.474,-0.202l-0.472,-0.205l-0.47,-0.208l-0.469,-0.211l-0.464,-0.211l-0.466,-0.216l-0.468,-0.22l-0.459,-0.22l-0.461,-0.224l-0.462,-0.228l-0.455,-0.228l-0.456,-0.232l-0.454,-0.235l-0.453,-0.237l-0.451,-0.24l-0.45,-0.242l-0.451,-0.247l-0.445,-0.248l-0.444,-0.25l-0.442,-0.253l-0.441,-0.255l-0.439,-0.258l-0.437,-0.26l-0.439,-0.265l-0.437,-0.268l-0.431,-0.268l-0.426,-0.268l-0.432,-0.275l-0.429,-0.277l-0.421,-0.275l-0.427,-0.283l-0.423,-0.285l-0.419,-0.284l-0.417,-0.288l-0.415,-0.289l-0.417,-0.295l-0.415,-0.297l-0.412,-0.299l-0.407,-0.299l-0.405,-0.301l-0.407,-0.307l-0.405,-0.308l-0.399,-0.308l-0.401,-0.314l-0.399,-0.316l-0.393,-0.314l-0.395,-0.321l-0.393,-0.322l-0.386,-0.322l-0.39,-0.326l-0.386,-0.33l-0.385,-0.331l-0.382,-0.334l-0.377,-0.332l-0.378,-0.338l-0.376,-0.34l-0.374,-0.342l-0.372,-0.344l-0.37,-0.347l-0.367,-0.349l-0.366,-0.35l-0.363,-0.353l-0.361,-0.355l-0.355,-0.353l-0.357,-0.359l-0.359,-0.365l-0.352,-0.363l-0.354,-0.369l-0.347,-0.368l-0.341,-0.365l-0.344,-0.371l-0.345,-0.377l-0.338,-0.375l-0.337,-0.377l-0.337,-0.383l-0.332,-0.381l-0.329,-0.383l-0.327,-0.385l-0.325,-0.386l-0.327,-0.393l-0.323,-0.395l-0.318,-0.392l-0.315,-0.394l-0.313,-0.396l-0.314,-0.403l-0.312,-0.404l-0.305,-0.401l-0.303,-0.403l-0.305,-0.41l-0.302,-0.412l-0.295,-0.408l-0.297,-0.415l-0.291,-0.412l-0.293,-0.419l-0.288,-0.42l-0.284,-0.417l-0.284,-0.424l-0.278,-0.42l-0.28,-0.427l-0.28,-0.435l-0.27,-0.425l-0.269,-0.427l-0.272,-0.44l-0.262,-0.43l-0.265,-0.437l-0.26,-0.439l-0.256,-0.434l-0.259,-0.448l-0.253,-0.444l-0.247,-0.439l-0.249,-0.447l-0.248,-0.454l-0.242,-0.45l-0.237,-0.446l-0.237,-0.452l-0.238,-0.461l-0.231,-0.456l-0.229,-0.457l-0.225,-0.459l-0.224,-0.46l-0.22,-0.462l-0.219,-0.463l-0.215,-0.465l-0.215,-0.472l-0.209,-0.467l-0.207,-0.469l-0.206,-0.477l-0.199,-0.464l-0.201,-0.48l-0.197,-0.48l-0.193,-0.476l-0.189,-0.477l-0.187,-0.478l-0.187,-0.486l-0.18,-0.48l-0.181,-0.489l-0.175,-0.483l-0.173,-0.484l-0.174,-0.499l-0.165,-0.487l-0.164,-0.488l-0.163,-0.496l-0.157,-0.491l-0.157,-0.498l-0.153,-0.5l-0.149,-0.494l-0.148,-0.501l-0.144,-0.504l-0.139,-0.497l-0.139,-0.505l-0.135,-0.507l-0.13,-0.5l-0.13,-0.509l-0.126,-0.509l-0.123,-0.511l-0.119,-0.512l-0.117,-0.513l-0.113,-0.514l-0.109,-0.507l-0.052,-0.251l-0.056,-0.265l-0.053,-0.266l-0.05,-0.251l-0.052,-0.266l-0.049,-0.252l-0.048,-0.252l-0.05,-0.267l-0.049,-0.267l-0.045,-0.252l-0.045,-0.253l-0.047,-0.268l-0.045,-0.268l-0.043,-0.254l-0.044,-0.268l-0.04,-0.254l-0.041,-0.254l-0.044,-0.284l-0.037,-0.255l-0.038,-0.255l-0.039,-0.27l-0.036,-0.255l-0.036,-0.256l-0.037,-0.27l-0.036,-0.271l-0.034,-0.27l-0.032,-0.257l-0.032,-0.257l-0.032,-0.271l-0.032,-0.272l-0.028,-0.257l-0.031,-0.272l-0.028,-0.272l-0.026,-0.258l-0.026,-0.258l-0.026,-0.259l-0.027,-0.287l-0.024,-0.274l-0.021,-0.244l-0.024,-0.273l-0.021,-0.274l-0.021,-0.26l-0.02,-0.274l-0.02,-0.274l-0.017,-0.26l-0.017,-0.26l-0.019,-0.29l-0.014,-0.26l-0.015,-0.261l-0.014,-0.276l-0.014,-0.275l-0.012,-0.276l-0.011,-0.261l-0.011,-0.262l-0.01,-0.276l-0.009,-0.277l-0.008,-0.262l-0.008,-0.277l-0.006,-0.277l-0.005,-0.262l-0.006,-0.277l-0.003,-0.278l-0.003,-0.263l-0.002,-0.263l-0.002,-0.278l0,-0.562l0.002,-0.278l0.002,-0.263l0.003,-0.263l0.003,-0.278l0.006,-0.277l0.005,-0.262l0.006,-0.277l0.008,-0.277l0.008,-0.262l0.009,-0.277l0.01,-0.276l0.011,-0.262l0.011,-0.261l0.012,-0.276l0.014,-0.275l0.014,-0.276l0.015,-0.261l0.014,-0.26l0.019,-0.29l0.017,-0.26l0.017,-0.26l0.02,-0.274l0.02,-0.274l0.021,-0.26l0.021,-0.274l0.024,-0.273l0.021,-0.244l0.024,-0.274l0.027,-0.287l0.026,-0.259l0.026,-0.258l0.026,-0.258l0.028,-0.272l0.031,-0.272l0.028,-0.257l0.032,-0.272l0.032,-0.271l0.032,-0.257l0.032,-0.257l0.034,-0.27l0.036,-0.271l0.037,-0.27l0.036,-0.256l0.036,-0.255l0.039,-0.27l0.038,-0.255l0.037,-0.255l0.044,-0.284l0.041,-0.254l0.04,-0.254l0.044,-0.268l0.043,-0.254l0.045,-0.268l0.047,-0.268l0.045,-0.253l0.045,-0.252l0.049,-0.267l0.05,-0.267l0.048,-0.252l0.049,-0.252l0.052,-0.266l0.05,-0.251l0.053,-0.266l0.056,-0.265l0.052,-0.251l0.109,-0.507l0.113,-0.514l0.117,-0.513l0.119,-0.512l0.123,-0.511l0.126,-0.509l0.13,-0.509l0.13,-0.5l0.135,-0.507l0.139,-0.505l0.139,-0.497l0.144,-0.504l0.148,-0.501l0.149,-0.494l0.153,-0.5l0.157,-0.498l0.157,-0.491l0.163,-0.496l0.164,-0.488l0.165,-0.487l0.174,-0.499l0.173,-0.484l0.175,-0.483l0.181,-0.489l0.18,-0.48l0.187,-0.486l0.187,-0.478l0.189,-0.477l0.193,-0.476l0.197,-0.48l0.201,-0.48l0.199,-0.464l0.206,-0.477l0.207,-0.469l0.209,-0.467l0.215,-0.472l0.215,-0.465l0.219,-0.463l0.22,-0.462l0.224,-0.46l0.225,-0.459l0.229,-0.457l0.231,-0.456l0.238,-0.461l0.237,-0.452l0.237,-0.446l0.242,-0.45l0.248,-0.454l0.249,-0.447l0.247,-0.439l0.253,-0.444l0.259,-0.448l0.256,-0.434l0.26,-0.439l0.265,-0.437l0.262,-0.43l0.272,-0.44l0.269,-0.427l0.27,-0.425l0.28,-0.435l0.28,-0.427l0.278,-0.42l0.284,-0.424l0.284,-0.417l0.288,-0.42l0.293,-0.419l0.291,-0.412l0.297,-0.415l0.295,-0.408l0.302,-0.412l0.305,-0.41l0.303,-0.403l0.305,-0.401l0.312,-0.404l0.314,-0.403l0.313,-0.396l0.315,-0.394l0.318,-0.392l0.323,-0.395l0.327,-0.393l0.325,-0.386l0.327,-0.385l0.329,-0.383l0.332,-0.381l0.337,-0.383l0.337,-0.377l0.338,-0.375l0.345,-0.377l0.344,-0.371l0.341,-0.365l0.347,-0.368l0.354,-0.369l0.352,-0.363l0.359,-0.365l0.357,-0.359l0.355,-0.353l0.361,-0.355l0.363,-0.353l0.366,-0.35l0.367,-0.349l0.37,-0.347l0.372,-0.344l0.374,-0.342l0.376,-0.34l0.378,-0.338l0.377,-0.332l0.382,-0.334l0.385,-0.331l0.386,-0.33l0.39,-0.326l0.386,-0.322l0.393,-0.322l0.395,-0.321l0.393,-0.315l0.399,-0.315l0.401,-0.313l0.399,-0.309l0.405,-0.308l0.407,-0.307l0.405,-0.301l0.407,-0.299l0.412,-0.299l0.415,-0.297l0.417,-0.295l0.415,-0.289l0.417,-0.288l0.419,-0.284l0.423,-0.285l0.427,-0.283l0.421,-0.275l0.429,-0.277l0.432,-0.275l0.426,-0.268l0.431,-0.268l0.437,-0.268l0.439,-0.265l0.437,-0.26l0.439,-0.258l0.441,-0.255l0.442,-0.253l0.444,-0.25l0.445,-0.248l0.451,-0.247l0.45,-0.242l0.451,-0.24l0.453,-0.237l0.454,-0.235l0.456,-0.232l0.455,-0.228l0.461,-0.228l0.462,-0.224l0.459,-0.22l0.467,-0.22l0.467,-0.216l0.464,-0.212l0.469,-0.21l0.471,-0.208l0.471,-0.205l0.474,-0.202l0.473,-0.198l0.476,-0.197l0.478,-0.193l0.48,-0.191l0.482,-0.189l0.48,-0.184l0.484,-0.182l0.483,-0.179l0.486,-0.177l0.489,-0.174l0.487,-0.17l0.492,-0.168l0.49,-0.164l0.491,-0.161l0.495,-0.16l0.497,-0.156l0.496,-0.153l0.499,-0.15l0.501,-0.147l0.498,-0.143l0.5,-0.141l0.507,-0.139l0.504,-0.135l0.505,-0.131l0.507,-0.129l0.506,-0.126l0.511,-0.123l0.51,-0.119l0.511,-0.116l0.514,-0.114l0.508,-0.109l0.262,-0.055l0.259,-0.053l0.256,-0.052l0.259,-0.052l0.261,-0.051l0.257,-0.05l0.257,-0.049l0.261,-0.049l0.261,-0.048l0.258,-0.046l0.262,-0.047l0.259,-0.045l0.259,-0.044l0.264,-0.044l0.261,-0.043l0.26,-0.042l0.263,-0.041l0.261,-0.041l0.263,-0.039l0.262,-0.039l0.261,-0.038l0.266,-0.038l0.263,-0.036l0.262,-0.036l0.265,-0.035l0.263,-0.033l0.264,-0.034l0.265,-0.032l0.266,-0.032l0.264,-0.03l0.264,-0.03l0.266,-0.029l0.267,-0.029l0.265,-0.027l0.266,-0.027l0.267,-0.026l0.267,-0.025l0.267,-0.024l0.266,-0.023l0.267,-0.022l0.268,-0.022l0.269,-0.021l0.267,-0.02l0.268,-0.019l0.268,-0.018l0.269,-0.018l0.268,-0.016l0.27,-0.016l0.27,-0.015l0.269,-0.014l0.27,-0.013l0.268,-0.013l0.272,-0.011l0.27,-0.011l0.27,-0.01l0.272,-0.009l0.271,-0.008l0.27,-0.007l0.271,-0.007l0.272,-0.005l0.272,-0.005l0.272,-0.004l0.272,-0.003l0.272,-0.002l0.272,-0.002l0.273,0l0.273,0Zm-0.499,15l-0.224,0.001l-0.225,0.002l-0.224,0.003l-0.225,0.003l-0.224,0.004l-0.224,0.004l-0.223,0.006l-0.224,0.006l-0.224,0.007l-0.223,0.007l-0.223,0.008l-0.224,0.009l-0.221,0.009l-0.222,0.011l-0.223,0.011l-0.222,0.011l-0.223,0.013l-0.221,0.012l-0.221,0.014l-0.222,0.015l-0.22,0.015l-0.221,0.015l-0.222,0.017l-0.22,0.017l-0.219,0.018l-0.22,0.018l-0.221,0.02l-0.22,0.019l-0.22,0.021l-0.218,0.021l-0.219,0.022l-0.22,0.023l-0.218,0.023l-0.217,0.024l-0.219,0.024l-0.219,0.026l-0.217,0.026l-0.216,0.026l-0.218,0.028l-0.218,0.028l-0.216,0.028l-0.218,0.03l-0.218,0.03l-0.213,0.03l-0.216,0.031l-0.218,0.032l-0.214,0.033l-0.216,0.033l-0.214,0.034l-0.216,0.035l-0.217,0.035l-0.211,0.036l-0.214,0.036l-0.216,0.038l-0.212,0.037l-0.215,0.039l-0.213,0.039l-0.211,0.04l-0.214,0.04l-0.214,0.042l-0.212,0.041l-0.21,0.042l-0.214,0.044l-0.21,0.043l-0.206,0.043l-0.43,0.093l-0.419,0.092l-0.421,0.096l-0.419,0.098l-0.417,0.101l-0.417,0.103l-0.417,0.106l-0.416,0.109l-0.415,0.111l-0.41,0.112l-0.412,0.116l-0.414,0.119l-0.41,0.12l-0.407,0.123l-0.409,0.126l-0.406,0.127l-0.404,0.13l-0.406,0.134l-0.404,0.135l-0.402,0.138l-0.402,0.14l-0.4,0.142l-0.398,0.145l-0.4,0.148l-0.395,0.149l-0.398,0.152l-0.394,0.154l-0.392,0.157l-0.392,0.158l-0.39,0.161l-0.392,0.165l-0.388,0.165l-0.387,0.168l-0.385,0.17l-0.384,0.173l-0.387,0.176l-0.382,0.177l-0.378,0.178l-0.382,0.183l-0.379,0.184l-0.374,0.185l-0.379,0.19l-0.375,0.191l-0.374,0.192l-0.372,0.196l-0.371,0.197l-0.371,0.2l-0.365,0.2l-0.367,0.204l-0.366,0.206l-0.364,0.208l-0.364,0.211l-0.362,0.212l-0.361,0.215l-0.356,0.215l-0.355,0.218l-0.356,0.221l-0.359,0.226l-0.351,0.223l-0.349,0.226l-0.355,0.232l-0.347,0.229l-0.344,0.232l-0.347,0.236l-0.346,0.239l-0.345,0.24l-0.339,0.24l-0.338,0.242l-0.337,0.244l-0.338,0.249l-0.337,0.251l-0.332,0.25l-0.331,0.251l-0.332,0.257l-0.328,0.256l-0.326,0.258l-0.328,0.263l-0.323,0.262l-0.322,0.264l-0.323,0.269l-0.319,0.268l-0.316,0.269l-0.316,0.272l-0.313,0.273l-0.316,0.279l-0.311,0.278l-0.309,0.279l-0.307,0.281l-0.306,0.283l-0.304,0.285l-0.302,0.286l-0.3,0.289l-0.299,0.291l-0.298,0.292l-0.299,0.298l-0.295,0.296l-0.289,0.294l-0.29,0.299l-0.285,0.298l-0.287,0.303l-0.289,0.309l-0.284,0.307l-0.279,0.305l-0.28,0.31l-0.279,0.312l-0.272,0.31l-0.275,0.316l-0.273,0.317l-0.272,0.319l-0.27,0.321l-0.264,0.318l-0.262,0.32l-0.264,0.326l-0.262,0.328l-0.26,0.33l-0.256,0.326l-0.252,0.328l-0.255,0.335l-0.253,0.336l-0.248,0.333l-0.245,0.335l-0.247,0.341l-0.241,0.338l-0.243,0.344l-0.239,0.341l-0.235,0.343l-0.238,0.349l-0.231,0.346l-0.234,0.352l-0.228,0.349l-0.223,0.345l-0.226,0.357l-0.226,0.359l-0.217,0.35l-0.221,0.362l-0.216,0.358l-0.213,0.359l-0.216,0.367l-0.207,0.356l-0.207,0.364l-0.209,0.372l-0.204,0.367l-0.198,0.362l-0.199,0.37l-0.2,0.377l-0.196,0.373l-0.189,0.368l-0.191,0.375l-0.189,0.377l-0.186,0.378l-0.184,0.38l-0.182,0.381l-0.18,0.383l-0.178,0.384l-0.173,0.379l-0.173,0.386l-0.171,0.388l-0.166,0.383l-0.169,0.397l-0.162,0.386l-0.159,0.387l-0.16,0.394l-0.157,0.396l-0.156,0.398l-0.15,0.392l-0.15,0.4l-0.147,0.394l-0.145,0.403l-0.144,0.403l-0.136,0.392l-0.139,0.406l-0.136,0.408l-0.132,0.401l-0.132,0.41l-0.127,0.405l-0.124,0.405l-0.125,0.414l-0.12,0.408l-0.117,0.409l-0.117,0.417l-0.113,0.412l-0.11,0.412l-0.11,0.421l-0.105,0.415l-0.103,0.416l-0.101,0.417l-0.098,0.419l-0.095,0.419l-0.092,0.421l-0.092,0.429l-0.046,0.218l-0.043,0.204l-0.041,0.205l-0.044,0.219l-0.04,0.205l-0.042,0.22l-0.042,0.22l-0.039,0.206l-0.037,0.206l-0.04,0.221l-0.039,0.221l-0.037,0.207l-0.035,0.207l-0.037,0.222l-0.034,0.208l-0.035,0.223l-0.036,0.223l-0.03,0.193l-0.033,0.224l-0.033,0.223l-0.031,0.21l-0.031,0.224l-0.032,0.224l-0.028,0.21l-0.028,0.21l-0.027,0.211l-0.028,0.225l-0.028,0.226l-0.025,0.211l-0.024,0.212l-0.026,0.226l-0.023,0.212l-0.022,0.213l-0.024,0.227l-0.022,0.227l-0.023,0.228l-0.019,0.198l-0.018,0.214l-0.021,0.243l-0.019,0.214l-0.017,0.214l-0.018,0.229l-0.016,0.215l-0.015,0.215l-0.015,0.23l-0.016,0.23l-0.012,0.201l-0.013,0.23l-0.014,0.231l-0.011,0.216l-0.011,0.217l-0.009,0.217l-0.01,0.232l-0.009,0.231l-0.008,0.218l-0.007,0.218l-0.007,0.232l-0.006,0.218l-0.005,0.219l-0.005,0.233l-0.004,0.219l-0.003,0.219l-0.002,0.234l-0.002,0.234l-0.002,0.22l0,0.446l0.004,0.454l0.005,0.453l0.009,0.452l0.005,0.219l0.006,0.218l0.014,0.45l0.017,0.449l0.019,0.449l0.022,0.433l0.014,0.231l0.013,0.23l0.012,0.201l0.016,0.23l0.015,0.23l0.015,0.215l0.016,0.215l0.018,0.229l0.017,0.214l0.019,0.214l0.021,0.243l0.018,0.214l0.019,0.198l0.023,0.228l0.022,0.227l0.024,0.227l0.022,0.213l0.023,0.212l0.026,0.226l0.024,0.212l0.025,0.211l0.028,0.226l0.028,0.225l0.027,0.211l0.028,0.21l0.028,0.21l0.032,0.224l0.031,0.224l0.031,0.21l0.033,0.223l0.033,0.224l0.03,0.193l0.036,0.223l0.035,0.223l0.034,0.208l0.037,0.222l0.035,0.207l0.037,0.207l0.039,0.221l0.04,0.221l0.037,0.206l0.039,0.206l0.042,0.22l0.042,0.22l0.04,0.205l0.044,0.219l0.041,0.205l0.043,0.204l0.046,0.218l0.092,0.429l0.092,0.421l0.095,0.419l0.098,0.419l0.101,0.417l0.103,0.416l0.105,0.415l0.11,0.421l0.11,0.412l0.113,0.412l0.117,0.417l0.117,0.409l0.12,0.408l0.125,0.414l0.124,0.405l0.127,0.405l0.132,0.41l0.132,0.401l0.136,0.408l0.139,0.406l0.136,0.392l0.144,0.403l0.145,0.403l0.147,0.394l0.15,0.4l0.15,0.392l0.156,0.398l0.157,0.396l0.16,0.394l0.159,0.387l0.162,0.386l0.169,0.397l0.166,0.383l0.171,0.388l0.173,0.386l0.173,0.379l0.178,0.384l0.18,0.383l0.182,0.381l0.184,0.38l0.186,0.378l0.189,0.377l0.191,0.375l0.189,0.368l0.196,0.373l0.2,0.377l0.199,0.37l0.198,0.362l0.204,0.367l0.209,0.372l0.207,0.364l0.207,0.356l0.216,0.367l0.213,0.359l0.216,0.358l0.221,0.362l0.217,0.35l0.226,0.359l0.226,0.357l0.223,0.345l0.228,0.349l0.234,0.352l0.231,0.346l0.238,0.349l0.235,0.343l0.239,0.341l0.243,0.344l0.241,0.338l0.247,0.341l0.246,0.335l0.247,0.333l0.253,0.336l0.255,0.335l0.252,0.328l0.256,0.326l0.26,0.33l0.262,0.328l0.264,0.326l0.262,0.32l0.264,0.318l0.27,0.321l0.272,0.319l0.273,0.317l0.275,0.316l0.272,0.31l0.279,0.312l0.28,0.31l0.279,0.305l0.284,0.307l0.289,0.309l0.287,0.303l0.285,0.298l0.29,0.299l0.289,0.294l0.295,0.296l0.299,0.298l0.298,0.292l0.299,0.291l0.3,0.289l0.302,0.286l0.304,0.285l0.306,0.283l0.307,0.281l0.309,0.28l0.311,0.277l0.316,0.279l0.313,0.273l0.316,0.272l0.316,0.269l0.319,0.268l0.323,0.269l0.322,0.264l0.323,0.262l0.328,0.263l0.326,0.258l0.328,0.256l0.332,0.256l0.331,0.253l0.332,0.25l0.337,0.25l0.338,0.249l0.337,0.244l0.338,0.242l0.339,0.24l0.345,0.24l0.346,0.239l0.347,0.236l0.344,0.232l0.347,0.229l0.355,0.232l0.349,0.226l0.351,0.223l0.359,0.226l0.356,0.221l0.355,0.218l0.356,0.215l0.361,0.215l0.362,0.212l0.364,0.211l0.364,0.208l0.366,0.206l0.367,0.204l0.365,0.2l0.371,0.2l0.371,0.197l0.372,0.196l0.374,0.192l0.375,0.191l0.379,0.19l0.373,0.185l0.38,0.184l0.382,0.183l0.378,0.178l0.382,0.177l0.387,0.176l0.384,0.173l0.385,0.17l0.387,0.168l0.388,0.165l0.392,0.165l0.39,0.161l0.392,0.158l0.392,0.157l0.394,0.154l0.398,0.152l0.395,0.149l0.4,0.148l0.398,0.145l0.4,0.142l0.402,0.14l0.402,0.138l0.404,0.135l0.406,0.134l0.404,0.13l0.406,0.127l0.409,0.126l0.407,0.123l0.41,0.12l0.414,0.119l0.412,0.116l0.41,0.113l0.415,0.11l0.416,0.109l0.417,0.106l0.417,0.103l0.417,0.101l0.419,0.098l0.421,0.096l0.42,0.092l0.429,0.093l0.206,0.043l0.21,0.043l0.214,0.044l0.21,0.042l0.212,0.041l0.214,0.042l0.214,0.04l0.211,0.04l0.213,0.039l0.215,0.039l0.212,0.037l0.216,0.038l0.214,0.036l0.211,0.036l0.217,0.035l0.215,0.035l0.215,0.034l0.216,0.033l0.215,0.033l0.217,0.032l0.216,0.031l0.213,0.03l0.218,0.03l0.218,0.03l0.216,0.028l0.218,0.028l0.218,0.028l0.216,0.026l0.217,0.026l0.219,0.026l0.219,0.024l0.217,0.024l0.218,0.023l0.22,0.023l0.219,0.022l0.219,0.021l0.219,0.021l0.22,0.019l0.221,0.02l0.22,0.018l0.219,0.018l0.22,0.017l0.222,0.017l0.221,0.015l0.22,0.015l0.222,0.015l0.221,0.014l0.221,0.012l0.223,0.013l0.222,0.011l0.223,0.011l0.221,0.011l0.222,0.009l0.224,0.009l0.223,0.008l0.223,0.007l0.224,0.007l0.224,0.006l0.224,0.006l0.223,0.004l0.224,0.004l0.225,0.003l0.224,0.003l0.225,0.002l0.225,0.001l0.225,0l0.225,0l0.225,-0.001l0.225,-0.002l0.224,-0.003l0.225,-0.003l0.224,-0.004l0.225,-0.004l0.223,-0.006l0.224,-0.006l0.223,-0.006l0.223,-0.008l0.224,-0.008l0.222,-0.009l0.223,-0.009l0.223,-0.011l0.222,-0.011l0.222,-0.011l0.222,-0.012l0.222,-0.014l0.222,-0.013l0.221,-0.015l0.22,-0.015l0.221,-0.015l0.222,-0.017l0.22,-0.017l0.219,-0.018l0.222,-0.018l0.22,-0.02l0.218,-0.019l0.221,-0.021l0.218,-0.021l0.219,-0.022l0.22,-0.023l0.218,-0.023l0.217,-0.024l0.219,-0.024l0.219,-0.026l0.219,-0.026l0.217,-0.026l0.216,-0.028l0.218,-0.028l0.216,-0.028l0.216,-0.029l0.217,-0.03l0.217,-0.031l0.217,-0.032l0.216,-0.031l0.214,-0.033l0.216,-0.033l0.214,-0.034l0.214,-0.034l0.215,-0.036l0.216,-0.036l0.216,-0.037l0.213,-0.037l0.212,-0.037l0.215,-0.039l0.213,-0.039l0.211,-0.04l0.214,-0.04l0.214,-0.042l0.212,-0.041l0.21,-0.042l0.213,-0.044l0.214,-0.044l0.205,-0.043l0.426,-0.091l0.421,-0.093l0.421,-0.096l0.419,-0.098l0.419,-0.101l0.418,-0.104l0.415,-0.105l0.414,-0.108l0.414,-0.111l0.414,-0.113l0.413,-0.116l0.41,-0.118l0.411,-0.121l0.41,-0.123l0.407,-0.126l0.406,-0.127l0.404,-0.13l0.406,-0.134l0.404,-0.135l0.404,-0.138l0.401,-0.14l0.399,-0.142l0.399,-0.145l0.396,-0.146l0.398,-0.151l0.398,-0.152l0.394,-0.154l0.392,-0.157l0.392,-0.158l0.39,-0.161l0.392,-0.165l0.388,-0.165l0.387,-0.168l0.388,-0.172l0.385,-0.172l0.381,-0.174l0.381,-0.177l0.384,-0.18l0.38,-0.182l0.378,-0.184l0.378,-0.186l0.376,-0.189l0.375,-0.19l0.374,-0.193l0.372,-0.195l0.368,-0.196l0.369,-0.2l0.372,-0.203l0.368,-0.204l0.363,-0.205l0.364,-0.208l0.364,-0.211l0.362,-0.212l0.358,-0.213l0.358,-0.217l0.359,-0.219l0.353,-0.22l0.359,-0.225l0.351,-0.224l0.348,-0.225l0.355,-0.233l0.347,-0.229l0.345,-0.232l0.347,-0.236l0.346,-0.238l0.341,-0.238l0.339,-0.24l0.345,-0.247l0.337,-0.244l0.335,-0.246l0.337,-0.251l0.332,-0.25l0.331,-0.252l0.328,-0.254l0.331,-0.259l0.33,-0.261l0.325,-0.26l0.323,-0.262l0.322,-0.264l0.323,-0.269l0.319,-0.267l0.316,-0.27l0.316,-0.272l0.313,-0.273l0.316,-0.279l0.311,-0.277l0.308,-0.279l0.308,-0.282l0.305,-0.283l0.304,-0.284l0.303,-0.287l0.3,-0.289l0.299,-0.29l0.298,-0.292l0.295,-0.295l0.294,-0.296l0.293,-0.297l0.29,-0.3l0.289,-0.302l0.288,-0.303l0.285,-0.305l0.28,-0.303l0.282,-0.308l0.28,-0.311l0.279,-0.312l0.277,-0.314l0.271,-0.311l0.273,-0.318l0.272,-0.319l0.266,-0.316l0.267,-0.323l0.266,-0.324l0.26,-0.322l0.263,-0.328l0.256,-0.324l0.255,-0.327l0.26,-0.338l0.252,-0.329l0.248,-0.332l0.251,-0.338l0.245,-0.334l0.248,-0.341l0.245,-0.343l0.24,-0.34l0.238,-0.341l0.236,-0.342l0.237,-0.35l0.232,-0.345l0.229,-0.348l0.232,-0.354l0.226,-0.35l0.224,-0.352l0.222,-0.353l0.223,-0.361l0.218,-0.356l0.216,-0.358l0.214,-0.36l0.212,-0.361l0.21,-0.362l0.207,-0.364l0.209,-0.371l0.204,-0.367l0.198,-0.362l0.199,-0.37l0.2,-0.377l0.196,-0.373l0.189,-0.368l0.191,-0.376l0.188,-0.376l0.187,-0.379l0.184,-0.38l0.182,-0.381l0.18,-0.382l0.175,-0.378l0.175,-0.385l0.173,-0.387l0.171,-0.388l0.169,-0.389l0.164,-0.384l0.164,-0.392l0.163,-0.394l0.157,-0.388l0.157,-0.396l0.155,-0.397l0.151,-0.392l0.148,-0.393l0.147,-0.402l0.147,-0.402l0.141,-0.397l0.141,-0.405l0.139,-0.406l0.134,-0.401l0.132,-0.402l0.129,-0.403l0.129,-0.411l0.127,-0.413l0.121,-0.4l0.121,-0.415l0.12,-0.416l0.113,-0.403l0.114,-0.418l0.111,-0.413l0.107,-0.414l0.107,-0.422l0.103,-0.416l0.101,-0.417l0.097,-0.418l0.096,-0.42l0.094,-0.428l0.093,-0.429l0.041,-0.196l0.045,-0.219l0.041,-0.204l0.041,-0.205l0.046,-0.234l0.04,-0.206l0.038,-0.205l0.042,-0.221l0.04,-0.22l0.038,-0.207l0.036,-0.207l0.038,-0.221l0.036,-0.207l0.036,-0.222l0.037,-0.223l0.034,-0.208l0.033,-0.208l0.034,-0.223l0.032,-0.209l0.03,-0.209l0.035,-0.238l0.03,-0.21l0.028,-0.209l0.031,-0.225l0.028,-0.21l0.027,-0.211l0.028,-0.225l0.028,-0.226l0.025,-0.211l0.024,-0.212l0.025,-0.226l0.024,-0.212l0.022,-0.212l0.025,-0.242l0.022,-0.213l0.02,-0.213l0.022,-0.228l0.019,-0.213l0.019,-0.214l0.018,-0.214l0.018,-0.229l0.018,-0.229l0.016,-0.215l0.015,-0.215l0.015,-0.23l0.016,-0.23l0.013,-0.215l0.013,-0.216l0.012,-0.216l0.011,-0.231l0.011,-0.217l0.01,-0.217l0.01,-0.246l0.01,-0.217l0.007,-0.203l0.007,-0.233l0.007,-0.232l0.006,-0.218l0.005,-0.219l0.005,-0.233l0.004,-0.234l0.004,-0.204l0.001,-0.234l0.003,-0.234l0.001,-0.205l0,-0.476l-0.001,-0.205l-0.003,-0.234l-0.001,-0.234l-0.004,-0.204l-0.004,-0.234l-0.005,-0.233l-0.005,-0.219l-0.006,-0.218l-0.007,-0.232l-0.007,-0.233l-0.007,-0.203l-0.01,-0.217l-0.01,-0.246l-0.01,-0.217l-0.011,-0.217l-0.011,-0.231l-0.012,-0.216l-0.013,-0.216l-0.013,-0.215l-0.016,-0.23l-0.015,-0.23l-0.015,-0.215l-0.016,-0.215l-0.018,-0.229l-0.018,-0.229l-0.018,-0.214l-0.019,-0.213l-0.019,-0.214l-0.022,-0.228l-0.02,-0.213l-0.022,-0.213l-0.025,-0.241l-0.022,-0.213l-0.024,-0.212l-0.025,-0.226l-0.024,-0.212l-0.025,-0.211l-0.028,-0.226l-0.028,-0.225l-0.027,-0.211l-0.028,-0.21l-0.031,-0.224l-0.028,-0.21l-0.03,-0.21l-0.035,-0.238l-0.03,-0.209l-0.032,-0.209l-0.034,-0.223l-0.033,-0.208l-0.034,-0.208l-0.037,-0.223l-0.036,-0.222l-0.036,-0.207l-0.038,-0.221l-0.036,-0.207l-0.038,-0.206l-0.04,-0.221l-0.042,-0.22l-0.038,-0.206l-0.04,-0.205l-0.046,-0.234l-0.041,-0.205l-0.041,-0.205l-0.045,-0.218l-0.041,-0.197l-0.093,-0.429l-0.094,-0.428l-0.096,-0.419l-0.097,-0.419l-0.101,-0.417l-0.103,-0.416l-0.107,-0.422l-0.107,-0.414l-0.111,-0.412l-0.114,-0.419l-0.113,-0.403l-0.12,-0.416l-0.121,-0.415l-0.121,-0.4l-0.127,-0.412l-0.129,-0.411l-0.129,-0.404l-0.132,-0.401l-0.134,-0.401l-0.139,-0.406l-0.141,-0.406l-0.141,-0.396l-0.147,-0.403l-0.147,-0.401l-0.148,-0.393l-0.151,-0.392l-0.155,-0.398l-0.157,-0.396l-0.157,-0.388l-0.163,-0.393l-0.164,-0.392l-0.164,-0.384l-0.169,-0.39l-0.171,-0.388l-0.173,-0.386l-0.175,-0.386l-0.175,-0.377l-0.18,-0.383l-0.182,-0.381l-0.184,-0.38l-0.187,-0.378l-0.188,-0.377l-0.191,-0.375l-0.189,-0.368l-0.196,-0.373l-0.2,-0.377l-0.199,-0.37l-0.198,-0.362l-0.204,-0.367l-0.209,-0.372l-0.207,-0.364l-0.21,-0.362l-0.212,-0.361l-0.214,-0.359l-0.216,-0.358l-0.218,-0.357l-0.223,-0.36l-0.222,-0.354l-0.224,-0.351l-0.226,-0.351l-0.232,-0.354l-0.229,-0.347l-0.232,-0.346l-0.237,-0.349l-0.236,-0.343l-0.238,-0.341l-0.24,-0.339l-0.245,-0.343l-0.248,-0.341l-0.245,-0.335l-0.251,-0.338l-0.248,-0.331l-0.252,-0.33l-0.26,-0.338l-0.255,-0.326l-0.256,-0.325l-0.263,-0.328l-0.26,-0.321l-0.266,-0.325l-0.267,-0.322l-0.266,-0.317l-0.272,-0.319l-0.273,-0.317l-0.271,-0.312l-0.277,-0.314l-0.279,-0.312l-0.28,-0.31l-0.282,-0.309l-0.28,-0.303l-0.286,-0.305l-0.287,-0.303l-0.289,-0.302l-0.291,-0.299l-0.292,-0.298l-0.294,-0.296l-0.295,-0.294l-0.298,-0.292l-0.299,-0.291l-0.3,-0.289l-0.303,-0.286l-0.304,-0.285l-0.305,-0.283l-0.307,-0.281l-0.309,-0.279l-0.311,-0.278l-0.316,-0.279l-0.313,-0.273l-0.316,-0.272l-0.316,-0.269l-0.319,-0.268l-0.324,-0.269l-0.321,-0.264l-0.323,-0.262l-0.325,-0.26l-0.33,-0.261l-0.331,-0.259l-0.328,-0.254l-0.331,-0.251l-0.332,-0.25l-0.337,-0.251l-0.335,-0.246l-0.337,-0.244l-0.345,-0.248l-0.339,-0.239l-0.341,-0.238l-0.346,-0.239l-0.347,-0.236l-0.345,-0.232l-0.347,-0.229l-0.355,-0.232l-0.348,-0.226l-0.351,-0.223l-0.359,-0.226l-0.353,-0.219l-0.359,-0.22l-0.359,-0.217l-0.357,-0.213l-0.362,-0.212l-0.364,-0.211l-0.364,-0.208l-0.363,-0.205l-0.368,-0.204l-0.372,-0.203l-0.369,-0.2l-0.368,-0.195l-0.373,-0.196l-0.373,-0.192l-0.375,-0.191l-0.376,-0.189l-0.378,-0.186l-0.378,-0.184l-0.38,-0.181l-0.384,-0.181l-0.381,-0.177l-0.381,-0.174l-0.385,-0.172l-0.389,-0.172l-0.386,-0.168l-0.388,-0.165l-0.392,-0.165l-0.39,-0.161l-0.392,-0.158l-0.392,-0.157l-0.394,-0.154l-0.398,-0.152l-0.398,-0.15l-0.397,-0.147l-0.398,-0.145l-0.399,-0.142l-0.401,-0.14l-0.404,-0.138l-0.405,-0.135l-0.405,-0.134l-0.404,-0.13l-0.406,-0.127l-0.407,-0.125l-0.41,-0.124l-0.411,-0.121l-0.41,-0.118l-0.413,-0.116l-0.414,-0.113l-0.414,-0.111l-0.414,-0.108l-0.415,-0.105l-0.418,-0.104l-0.419,-0.101l-0.419,-0.098l-0.421,-0.096l-0.421,-0.093l-0.426,-0.091l-0.205,-0.043l-0.214,-0.044l-0.213,-0.044l-0.21,-0.042l-0.212,-0.041l-0.214,-0.042l-0.214,-0.04l-0.211,-0.04l-0.213,-0.039l-0.215,-0.039l-0.212,-0.037l-0.213,-0.037l-0.216,-0.037l-0.216,-0.036l-0.215,-0.036l-0.214,-0.034l-0.214,-0.034l-0.216,-0.033l-0.215,-0.033l-0.215,-0.031l-0.217,-0.032l-0.217,-0.031l-0.217,-0.03l-0.216,-0.029l-0.216,-0.028l-0.218,-0.028l-0.216,-0.028l-0.217,-0.026l-0.219,-0.026l-0.219,-0.026l-0.219,-0.024l-0.217,-0.024l-0.218,-0.023l-0.22,-0.023l-0.219,-0.022l-0.219,-0.021l-0.22,-0.021l-0.218,-0.019l-0.22,-0.02l-0.222,-0.018l-0.219,-0.018l-0.22,-0.017l-0.222,-0.017l-0.221,-0.015l-0.22,-0.015l-0.221,-0.015l-0.222,-0.013l-0.223,-0.014l-0.222,-0.012l-0.221,-0.011l-0.222,-0.011l-0.223,-0.011l-0.223,-0.009l-0.222,-0.009l-0.224,-0.008l-0.223,-0.008l-0.223,-0.006l-0.224,-0.006l-0.223,-0.006l-0.225,-0.004l-0.224,-0.004l-0.225,-0.003l-0.225,-0.003l-0.224,-0.002l-0.225,-0.001l-0.225,0l-0.226,0Z" style="fill:#ff5c49;"/><path d="M43.91,48.136l121.903,87.804l-9.186,12.759l-121.904,-87.809l9.187,-12.754Z" style="fill:#ff5c49;"/></svg>