<?xml version="1.0" encoding="UTF-8" standalone="no"?><!DOCTYPE svg PUBLIC "-//W3C//DTD SVG 1.1//EN" "http://www.w3.org/Graphics/SVG/1.1/DTD/svg11.dtd"><svg width="100%" height="100%" viewBox="0 0 82 82" version="1.1" xmlns="http://www.w3.org/2000/svg" xmlns:xlink="http://www.w3.org/1999/xlink" xml:space="preserve" style="fill-rule:evenodd;clip-rule:evenodd;stroke-linejoin:round;stroke-miterlimit:1.41421;"><g id="T.-.-Lund.-.-HP.-.-ReEngineering"><path d="M81.6,40.8c0,22.533 -18.266,40.8 -40.8,40.8c-22.533,0 -40.8,-18.267 -40.8,-40.8c0,-22.533 18.267,-40.8 40.8,-40.8c22.534,0 40.8,18.267 40.8,40.8" style="fill:#71cddd;fill-rule:nonzero;"/><g><path d="M26.298,55.787c-2.22,0 -4.374,-0.633 -6.233,-1.83l1.901,-2.949c1.29,0.831 2.788,1.271 4.332,1.271c4.416,0 8.009,-3.592 8.009,-8.009c0,-4.416 -3.593,-8.009 -8.009,-8.009c-2.253,0 -4.414,0.957 -5.93,2.626l-2.597,-2.359c2.18,-2.399 5.287,-3.775 8.527,-3.775c6.351,0 11.517,5.167 11.517,11.517c0,6.351 -5.166,11.517 -11.517,11.517" style="fill:#232740;fill-rule:nonzero;"/><path d="M20.184,41.761l-1.955,-0.91l-1.214,2.609l1.956,0.909l1.213,-2.608Z" style="fill:#a3a3a3;fill-rule:nonzero;"/><path d="M27.364,27.622l-2.981,-1.387l-1.214,2.609l2.981,1.386l1.214,-2.608Z" style="fill:#a3a3a3;fill-rule:nonzero;"/><path d="M27.714,28.318c-0.063,-0.007 -0.125,-0.023 -0.186,-0.051l-3.663,-1.692c-0.285,-0.133 -0.409,-0.472 -0.276,-0.757c0.133,-0.286 0.47,-0.41 0.757,-0.277l3.663,1.692c0.285,0.133 0.41,0.472 0.276,0.757c-0.104,0.226 -0.337,0.35 -0.571,0.328" style="fill:#232740;fill-rule:nonzero;"/><path d="M28.457,30.823c-0.052,-0.142 -0.158,-0.259 -0.295,-0.322l-6.521,-3.034c-0.288,-0.132 -0.625,-0.009 -0.757,0.277l-5.462,11.734c-0.064,0.137 -0.071,0.293 -0.019,0.435c0.052,0.142 0.159,0.259 0.295,0.322l6.521,3.035c0.061,0.028 0.123,0.045 0.186,0.051c0.234,0.022 0.467,-0.102 0.571,-0.327l5.463,-11.735c0.063,-0.138 0.07,-0.294 0.018,-0.436" style="fill:#7b7d8c;fill-rule:nonzero;"/><rect x="13.983" y="48.641" width="8.121" height="7.471" style="fill:#7b7d8c;fill-rule:nonzero;"/><rect x="12.292" y="48.442" width="11.503" height="0.744" style="fill:#79b4e2;fill-rule:nonzero;"/><path d="M36.883,56.112l-22.895,0l0,-1.884l22.895,0c0.521,0 0.942,0.422 0.942,0.942c0,0.52 -0.421,0.942 -0.942,0.942" style="fill:#7b7d8c;fill-rule:nonzero;"/><path d="M36.186,36.918c0,1.858 -1.506,3.363 -3.364,3.363c-1.858,0 -3.364,-1.505 -3.364,-3.363c0,-1.857 1.506,-3.363 3.364,-3.363c1.858,0 3.364,1.506 3.364,3.363" style="fill:#7b7d8c;fill-rule:nonzero;"/><path d="M32.822,33.555c-1.858,0 -3.363,1.505 -3.363,3.363c0,1.858 1.505,3.364 3.363,3.364c1.858,0 3.363,-1.506 3.363,-3.364c0,-1.858 -1.505,-3.363 -3.363,-3.363m0,1.385c1.091,0 1.978,0.887 1.978,1.978c0,1.091 -0.887,1.978 -1.978,1.978c-1.091,0 -1.978,-0.887 -1.978,-1.978c0,-1.091 0.887,-1.978 1.978,-1.978" style="fill:#a3a3a3;fill-rule:nonzero;"/></g><g><path d="M51.145,33.302l6.129,8.875c0,0 1.386,1.632 1.83,1.933c0.445,0.301 1.704,1.391 2.336,2.305l1.052,-0.726c0,0 -1.05,-2.056 -3.077,-4.991l-6.129,-8.875l-2.283,-3.305c-1.312,1.374 -0.869,3.321 0.142,4.784" style="fill:#858585;fill-rule:nonzero;"/><path d="M67.54,51.766c-1.005,0.694 -2.399,0.415 -3.116,-0.621c-0.716,-1.038 -0.482,-2.441 0.522,-3.135c1.004,-0.693 2.399,-0.415 3.116,0.622c0.716,1.038 0.482,2.441 -0.522,3.134m-2.231,-4.983c-1.08,0.442 -1.022,1.113 -1.559,0.874c-0.535,-0.238 -1.258,-1.968 -1.258,-1.968l-1.052,0.727c0,0 1.346,2.144 1.778,4.041c0.433,1.898 2.008,2.392 3.174,2.605c1.166,0.214 3.57,-1.351 2.749,-3.959c-0.822,-2.608 -2.752,-2.761 -3.832,-2.32" style="fill:#f76b34;fill-rule:nonzero;"/><path d="M59.311,41.838c0.178,0.258 0.114,0.612 -0.144,0.79c-0.258,0.178 -0.612,0.113 -0.79,-0.145c-0.178,-0.258 -0.113,-0.611 0.144,-0.789c0.259,-0.179 0.612,-0.114 0.79,0.144" style="fill:#a3a3a3;fill-rule:nonzero;"/><path d="M66.544,33.302l-6.129,8.875c0,0 -1.387,1.632 -1.831,1.933c-0.445,0.301 -1.704,1.391 -2.336,2.305l-1.052,-0.726c0,0 1.05,-2.056 3.077,-4.991l6.129,-8.875l2.283,-3.305c1.313,1.374 0.87,3.321 -0.141,4.784" style="fill:#a3a3a3;fill-rule:nonzero;"/><path d="M49.627,48.632c0.716,-1.037 2.111,-1.316 3.115,-0.621c1.005,0.693 1.238,2.096 0.522,3.133c-0.716,1.038 -2.112,1.316 -3.116,0.622c-1.004,-0.694 -1.238,-2.097 -0.521,-3.134m-1.079,0.471c-0.822,2.608 1.582,4.173 2.748,3.96c1.167,-0.214 2.742,-0.708 3.174,-2.606c0.432,-1.897 1.778,-4.041 1.778,-4.041l-1.052,-0.727c0,0 -0.722,1.731 -1.258,1.968c-0.536,0.238 -0.479,-0.432 -1.559,-0.873c-1.08,-0.442 -3.01,-0.289 -3.831,2.319" style="fill:#f76b34;fill-rule:nonzero;"/><path d="M58.377,41.838c-0.178,0.258 -0.114,0.612 0.144,0.79c0.259,0.178 0.612,0.113 0.791,-0.145c0.178,-0.258 0.113,-0.611 -0.145,-0.789c-0.258,-0.179 -0.612,-0.114 -0.79,0.144" style="fill:#ebebea;fill-rule:nonzero;"/><path d="M51.145,33.302l6.129,8.875c0,0 1.386,1.632 1.83,1.933c0.445,0.301 1.704,1.391 2.336,2.305l1.052,-0.726c0,0 -1.05,-2.056 -3.077,-4.991l-6.129,-8.875l-2.283,-3.305c-1.312,1.374 -0.869,3.321 0.142,4.784" style="fill:#858585;fill-rule:nonzero;"/><path d="M67.54,51.766c-1.005,0.694 -2.399,0.415 -3.116,-0.621c-0.716,-1.038 -0.482,-2.441 0.522,-3.135c1.004,-0.693 2.399,-0.415 3.116,0.622c0.716,1.038 0.482,2.441 -0.522,3.134m-2.231,-4.983c-1.08,0.442 -1.022,1.113 -1.559,0.874c-0.535,-0.238 -1.258,-1.968 -1.258,-1.968l-1.052,0.727c0,0 1.346,2.144 1.778,4.041c0.433,1.898 2.008,2.392 3.174,2.605c1.166,0.214 3.57,-1.351 2.749,-3.959c-0.822,-2.608 -2.752,-2.761 -3.832,-2.32" style="fill:#f76b34;fill-rule:nonzero;"/><path d="M59.311,41.838c0.178,0.258 0.114,0.612 -0.144,0.79c-0.258,0.178 -0.612,0.113 -0.79,-0.145c-0.178,-0.258 -0.113,-0.611 0.144,-0.789c0.259,-0.179 0.612,-0.114 0.79,0.144" style="fill:#a3a3a3;fill-rule:nonzero;"/><path d="M66.544,33.302l-6.129,8.875c0,0 -1.387,1.632 -1.831,1.933c-0.445,0.301 -1.704,1.391 -2.336,2.305l-1.052,-0.726c0,0 1.05,-2.056 3.077,-4.991l6.129,-8.875l2.283,-3.305c1.313,1.374 0.87,3.321 -0.141,4.784" style="fill:#a3a3a3;fill-rule:nonzero;"/><path d="M49.627,48.632c0.716,-1.037 2.111,-1.316 3.115,-0.621c1.005,0.693 1.238,2.096 0.522,3.133c-0.716,1.038 -2.112,1.316 -3.116,0.622c-1.004,-0.694 -1.238,-2.097 -0.521,-3.134m-1.079,0.471c-0.822,2.608 1.582,4.173 2.748,3.96c1.167,-0.214 2.742,-0.708 3.174,-2.606c0.432,-1.897 1.778,-4.041 1.778,-4.041l-1.052,-0.727c0,0 -0.722,1.731 -1.258,1.968c-0.536,0.238 -0.479,-0.432 -1.559,-0.873c-1.08,-0.442 -3.01,-0.289 -3.831,2.319" style="fill:#f76b34;fill-rule:nonzero;"/><path d="M58.377,41.838c-0.178,0.258 -0.114,0.612 0.144,0.79c0.259,0.178 0.612,0.113 0.791,-0.145c0.178,-0.258 0.113,-0.611 -0.145,-0.789c-0.258,-0.179 -0.612,-0.114 -0.79,0.144" style="fill:#ebebea;fill-rule:nonzero;"/></g></g></svg>