<?xml version="1.0" encoding="UTF-8" standalone="no"?><!DOCTYPE svg PUBLIC "-//W3C//DTD SVG 1.1//EN" "http://www.w3.org/Graphics/SVG/1.1/DTD/svg11.dtd"><svg width="100%" height="100%" viewBox="0 0 360 181" version="1.1" xmlns="http://www.w3.org/2000/svg" xmlns:xlink="http://www.w3.org/1999/xlink" xml:space="preserve" style="fill-rule:evenodd;clip-rule:evenodd;"><rect id="T.-.-Lund.-.-DescriptionMolecule" x="0" y="0" width="360" height="181" style="fill:none;"/><path d="M179.635,93.644c1.034,-2.559 -0.204,-5.475 -2.763,-6.509l-9.272,-3.746c-2.558,-1.034 -5.475,0.204 -6.509,2.763c-1.033,2.558 0.205,5.475 2.763,6.509l9.272,3.746c2.559,1.034 5.475,-0.204 6.509,-2.763Z" style="fill:#fed500;"/><path d="M132.335,114.542l-12.108,-18.984l50.136,-5.648l-38.028,24.632Z" style="fill:#c8daf4;fill-rule:nonzero;"/><ellipse cx="79.76" cy="120.853" rx="54.575" ry="40.168" style="fill:#c8daf4;"/><g><path d="M63.932,127.384l-11.151,6.595l-11.285,-6.36l-0.136,-12.953l11.15,-6.595l11.286,6.36l0.136,12.953Z" style="fill:none;stroke:#000;stroke-width:0.83px;"/><path d="M63.796,114.431l8.984,-6.572" style="fill:none;stroke:#000;stroke-width:0.83px;"/><path d="M63.932,127.384l9.12,6.382" style="fill:none;stroke:#000;stroke-width:0.83px;"/><path d="M72.78,107.859l9.12,6.382" style="fill:none;stroke:#000;stroke-width:0.83px;"/><path d="M73.052,133.766l8.984,-6.572" style="fill:none;stroke:#000;stroke-width:0.83px;"/><path d="M81.9,114.241l8.985,-6.572" style="fill:none;stroke:#000;stroke-width:0.83px;"/><path d="M90.885,107.669l9.12,6.382" style="fill:none;stroke:#000;stroke-width:0.83px;"/><path d="M81.951,127.195l9.121,6.382" style="fill:none;stroke:#000;stroke-width:0.83px;"/><path d="M91.072,133.577l8.984,-6.572" style="fill:none;stroke:#000;stroke-width:0.83px;"/><path d="M99.92,114.052l8.984,-6.572" style="fill:none;stroke:#000;stroke-width:0.83px;"/><path d="M108.904,107.48l9.12,6.382" style="fill:none;stroke:#000;stroke-width:0.83px;"/><path d="M100.056,127.005l9.12,6.383" style="fill:none;stroke:#000;stroke-width:0.83px;"/><path d="M109.176,133.388l8.984,-6.572" style="fill:none;stroke:#000;stroke-width:0.83px;"/><path d="M44.05,114.638l0.136,12.953" style="fill:none;stroke:#000;stroke-width:0.83px;"/><path d="M51.635,110.181l10.525,5.93" style="fill:none;stroke:#000;stroke-width:0.83px;"/><path d="M62.259,125.571l-10.398,6.15" style="fill:none;stroke:#000;stroke-width:0.83px;"/><path d="M71.596,108.725l-0.125,-11.869" style="fill:none;stroke:#000;stroke-width:0.83px;"/><path d="M73.982,108.7l-0.124,-11.869" style="fill:none;stroke:#000;stroke-width:0.83px;"/><path d="M71.975,144.931l-0.124,-11.869" style="fill:none;stroke:#000;stroke-width:0.83px;"/><path d="M74.362,144.906l-0.124,-11.869" style="fill:none;stroke:#000;stroke-width:0.83px;"/><circle cx="72.643" cy="94.819" r="2.522" style="fill:none;stroke:#000;stroke-width:0.83px;"/><circle cx="73.189" cy="146.887" r="2.522" style="fill:none;stroke:#000;stroke-width:0.83px;"/></g><path d="M237.018,106.772c-0.25,-2.748 -2.685,-4.776 -5.433,-4.525l-9.959,0.907c-2.748,0.251 -4.776,2.685 -4.525,5.433c0.25,2.748 2.685,4.776 5.433,4.526l9.959,-0.908c2.748,-0.25 4.776,-2.684 4.525,-5.433Z" style="fill:#f87eac;"/><path d="M227.06,106.788l30.082,-37.736l14.169,18.083l-44.251,19.653Z" style="fill:#c8daf4;fill-rule:nonzero;"/><ellipse cx="297.063" cy="58.952" rx="44.878" ry="38.82" style="fill:#c8daf4;"/><g><path d="M286.951,71.489l-10.398,6.003l-10.397,-6.003l0,-12.007l10.397,-6.004l10.398,6.004l0,12.007Z" style="fill:none;stroke:#000;stroke-width:0.71px;"/><path d="M307.746,71.489l-10.398,6.003l-10.397,-6.003l0,-12.007l10.397,-6.004l10.398,6.004l0,12.007Z" style="fill:none;stroke:#000;stroke-width:0.71px;"/><path d="M328.541,71.489l-10.398,6.003l-10.397,-6.003l0,-12.007l10.397,-6.004l10.398,6.004l0,12.007Z" style="fill:none;stroke:#000;stroke-width:0.71px;"/><path d="M297.348,53.478l0,-11.088" style="fill:none;stroke:#000;stroke-width:0.71px;"/><rect x="290.958" y="27.505" width="12.78" height="14.885" style="fill:none;"/><text x="290.957px" y="40.486px" style="font-family:'LucidaGrande', 'Lucida Grande', sans-serif;font-weight:500;font-size:18.283px;">cl</text></g></svg>