<?xml version="1.0" encoding="UTF-8" standalone="no"?><!DOCTYPE svg PUBLIC "-//W3C//DTD SVG 1.1//EN" "http://www.w3.org/Graphics/SVG/1.1/DTD/svg11.dtd"><svg width="100%" height="100%" viewBox="0 0 360 216" version="1.1" xmlns="http://www.w3.org/2000/svg" xmlns:xlink="http://www.w3.org/1999/xlink" xml:space="preserve" style="fill-rule:evenodd;clip-rule:evenodd;stroke-linejoin:round;stroke-miterlimit:1.41421;"><rect id="T.-.-Lund.-.-DescriptionFish" x="0" y="0" width="360" height="216" style="fill:none;"/><g><path d="M104.192,48.56c0,2.813 -34.004,-2.737 -34.004,-5.55l30.408,-16.971c2.812,0 3.596,1.006 3.596,3.818l0,18.703Z" style="fill:#f6851f;fill-rule:nonzero;"/><path d="M138.197,98.328c0,0.622 -1.85,3.037 -4.648,1.953c-4.173,-2.61 -37.2,-22.049 -37.2,-23.237l38.251,-21.512c2.812,0 3.597,1.006 3.597,3.819l0,38.977Z" style="fill:#f6851f;fill-rule:nonzero;"/><path d="M98.533,105.064c-0.155,-2.678 -32.738,0.879 -32.583,3.556l29.404,17.409c2.633,0.116 3.313,-0.809 3.158,-3.487l0.021,-17.478Z" style="fill:#f6851f;fill-rule:nonzero;"/><path d="M73.577,78.959c0.757,0.895 0.664,2.219 -0.209,2.957c-0.873,0.737 -2.194,0.609 -2.951,-0.285l-24.388,-28.851c-0.757,-0.896 -0.663,-2.22 0.21,-2.957c0.872,-0.738 2.193,-0.61 2.95,0.285l24.388,28.851Z" style="fill:#f6851f;fill-rule:nonzero;"/><path d="M70.774,79.078c0.71,-0.797 1.923,-0.876 2.71,-0.175c0.787,0.7 0.85,1.914 0.141,2.712l-22.852,25.684c-0.709,0.797 -1.923,0.875 -2.71,0.175c-0.787,-0.7 -0.85,-1.915 -0.141,-2.712l22.852,-25.684Z" style="fill:#f6851f;fill-rule:nonzero;"/><path d="M124.522,77.944c0,19.592 -20.706,35.475 -46.249,35.475c-14.568,0 -27.687,-5.793 -27.516,-6.103c0.09,-0.163 6.199,-7.073 12.205,-13.816c5.42,-6.084 10.795,-12.02 10.875,-12.943c0.087,-1.016 -7.011,-9.288 -13.527,-17.028c-5.832,-6.928 -11.156,-13.462 -11.156,-13.462c0,0 14.445,-7.598 29.119,-7.598c25.543,0 46.249,15.883 46.249,35.475Z" style="fill:#fcaf17;fill-rule:nonzero;"/><circle cx="65.32" cy="53.609" r="8.063"/><ellipse cx="62.974" cy="54.659" rx="3.595" ry="3.618" style="fill:#fff;"/></g><g><path d="M249.58,168.544c-0.04,-2.811 34.019,2.259 34.059,5.069l-30.149,17.386c-2.811,0.039 -3.609,-0.955 -3.648,-3.766l-0.262,-18.689Z" style="fill:#f6851f;fill-rule:nonzero;"/><path d="M214.901,119.287c-0.009,-0.621 1.806,-3.06 4.618,-2.017c4.206,2.55 37.483,21.512 37.499,22.7l-37.923,22.033c-2.81,0.039 -3.608,-0.955 -3.647,-3.766l-0.547,-38.95Z" style="fill:#f6851f;fill-rule:nonzero;"/><path d="M254.443,112c0.192,2.674 32.703,-1.337 32.51,-4.011l-29.628,-16.984c-2.633,-0.079 -3.299,0.855 -3.106,3.529l0.224,17.466Z" style="fill:#f6851f;fill-rule:nonzero;"/><path d="M279.679,139.556c-1.17,-0.062 -2.07,-1.037 -2.009,-2.177c0.06,-1.14 1.057,-2.014 2.227,-1.953l37.702,1.991c1.17,0.062 2.07,1.037 2.01,2.177c-0.06,1.14 -1.058,2.014 -2.227,1.952l-37.703,-1.99Z" style="fill:#f6851f;fill-rule:nonzero;"/><path d="M280.233,138.437c-1.064,0.085 -1.993,-0.698 -2.076,-1.748c-0.083,-1.049 0.711,-1.969 1.774,-2.054l34.251,-2.715c1.063,-0.085 1.992,0.698 2.076,1.748c0.083,1.049 -0.712,1.969 -1.775,2.053l-34.25,2.716Z" style="fill:#f6851f;fill-rule:nonzero;"/><path d="M228.852,139.466c-0.275,-19.579 20.195,-35.741 45.72,-36.099c22.185,-0.311 39.361,22.939 39.61,28.553c0.005,0.103 -10.758,0.864 -20.303,1.609c-7.626,0.595 -14.478,0.954 -14.413,2.615c0.103,2.666 12.052,3.663 22.307,4.363c7.803,0.533 14.6,1.058 14.6,1.058c0,0 -3.624,32.18 -40.806,32.702c-25.525,0.358 -46.44,-15.223 -46.715,-34.801Z" style="fill:#fcaf17;fill-rule:nonzero;"/><path d="M283.956,164.083c-0.446,0.339 -1.08,0.256 -1.414,-0.185c-0.335,-0.441 -0.244,-1.073 0.202,-1.412l14.387,-10.919c0.446,-0.339 1.08,-0.256 1.414,0.185c0.335,0.441 0.244,1.073 -0.202,1.412l-14.387,10.919Z" style="fill-rule:nonzero;"/><path d="M282.545,153.514c-0.461,-0.319 -0.579,-0.946 -0.265,-1.401c0.315,-0.456 0.944,-0.566 1.405,-0.248l14.857,10.27c0.461,0.319 0.579,0.947 0.265,1.402c-0.315,0.456 -0.944,0.566 -1.405,0.248l-14.857,-10.271Z" style="fill-rule:nonzero;"/></g></svg>