<?xml version="1.0" encoding="UTF-8" standalone="no"?><!DOCTYPE svg PUBLIC "-//W3C//DTD SVG 1.1//EN" "http://www.w3.org/Graphics/SVG/1.1/DTD/svg11.dtd"><svg width="100%" height="100%" viewBox="0 0 82 82" version="1.1" xmlns="http://www.w3.org/2000/svg" xmlns:xlink="http://www.w3.org/1999/xlink" xml:space="preserve" style="fill-rule:evenodd;clip-rule:evenodd;stroke-linejoin:round;stroke-miterlimit:1.41421;"><g id="T.-.-Lund.-.-HP.-.-Standardized"><path d="M81.6,40.8c0,22.533 -18.267,40.8 -40.8,40.8c-22.534,0 -40.8,-18.267 -40.8,-40.8c0,-22.533 18.266,-40.8 40.8,-40.8c22.533,0 40.8,18.267 40.8,40.8" style="fill:#c7b6f7;fill-rule:nonzero;"/><g><path d="M11.804,40.8c0,-2.192 1.777,-3.969 3.969,-3.969l0,-6.52l-2.349,0l0,2.553c-0.561,0.167 -1.096,0.39 -1.6,0.666l-1.807,-1.808l-1.661,1.661l-1.661,1.661l1.821,1.821c-0.269,0.5 -0.486,1.031 -0.647,1.586l-2.585,0l0,4.698l2.61,0c0.165,0.544 0.384,1.065 0.653,1.555l-1.852,1.852l1.661,1.661l1.661,1.661l1.865,-1.866c0.487,0.262 1.003,0.475 1.542,0.635l0,2.642l2.349,0l0,-6.52c-2.192,0 -3.969,-1.777 -3.969,-3.969" style="fill:#989494;fill-rule:nonzero;"/><path d="M23.677,38.451c-0.162,-0.555 -0.379,-1.086 -0.647,-1.586c-0.036,-0.066 -0.072,-0.13 -0.109,-0.195c0.037,0.065 0.073,0.129 0.109,0.195l1.821,-1.821l-1.661,-1.661l-1.661,-1.661l-1.808,1.808c-0.503,-0.276 -1.039,-0.5 -1.599,-0.666l0,-2.553l-2.349,0l0,6.52c2.192,0 3.969,1.777 3.969,3.969c0,2.192 -1.777,3.969 -3.969,3.969l0,6.52l2.349,0l0,-2.642c0.539,-0.16 1.055,-0.373 1.542,-0.634l1.865,1.865l1.661,-1.661l1.661,-1.661l-1.852,-1.852c0.268,-0.49 0.487,-1.011 0.653,-1.555c0.028,-0.094 0.055,-0.188 0.08,-0.283c-0.025,0.095 -0.052,0.189 -0.08,0.283l2.61,0l0,-2.349l0,-2.349l-2.585,0Z" style="fill:#7e7b7b;fill-rule:nonzero;"/></g><g><rect x="59.732" y="34.084" width="16.584" height="16.584" style="fill:#fff;"/><rect x="59.732" y="34.084" width="15.352" height="14.952" style="fill:#d0dada;"/><rect x="61.716" y="44.569" width="12.617" height="1.508" style="fill:#68686d;"/><rect x="61.716" y="42.402" width="12.617" height="1.508" style="fill:#68686d;"/><rect x="61.716" y="46.728" width="12.617" height="1.508" style="fill:#68686d;"/><rect x="61.716" y="40.243" width="12.617" height="1.508" style="fill:#68686d;"/><rect x="61.716" y="36.954" width="12.617" height="1.508" style="fill:#c26060;"/><rect x="57.094" y="30.932" width="16.584" height="16.584" style="fill:#fff;"/><path d="M69.259,35.467c0.099,0.35 0.153,0.719 0.153,1.101c0,2.224 -1.803,4.026 -4.027,4.026c-2.223,0 -4.025,-1.802 -4.025,-4.026c0,-2.223 1.802,-4.026 4.025,-4.026l0,4.026l3.874,-1.101Z" style="fill:#e76d66;"/><path d="M65.386,32.542c1.841,0 3.394,1.237 3.873,2.925l-3.873,1.102l0,-4.027Z" style="fill:#69c7ca;"/><rect x="60.485" y="41.656" width="9.8" height="1.508" style="fill:#777;"/><rect x="60.485" y="43.815" width="9.8" height="1.508" style="fill:#777;"/></g><g><path d="M45.88,33.338l0,2.755l-15.756,0l0,4.707l23.107,0l-7.351,-7.462Z" style="fill:#52b088;fill-rule:nonzero;"/><path d="M53.231,40.8l-23.106,0l0,4.707l15.755,0l0,2.755l7.351,-7.462Z" style="fill:#269c6a;fill-rule:nonzero;"/></g></g></svg>